/* XPM */
static const char * about_xpm[] = {
"24 24 15 1",
" 	c None",
".	c #000000",
"+	c #EEF63E",
"@	c #EAF13D",
"#	c #F0F83F",
"$	c #C9D034",
"%	c #E9F03D",
"&	c #E5EC3C",
"*	c #E8F03D",
"=	c #A9AE2C",
"-	c #ECF33E",
";	c #EFF73F",
">	c #CED636",
",	c #B1B72E",
"'	c #CCD334",
"                        ",
"     .          .       ",
"    .+.        .+.      ",
"  ..@#$..    ..@#$..    ",
" .######%.  .######%.   ",
"  .####&.    .####&.    ",
"  .*###=.    .*###=.    ",
"  .#-.;>.    .#-.;>.    ",
"  .,. .'.    .,. .'.    ",
"   .   .      .   .     ",
"                        ",
"                        ",
"                        ",
"     .          .       ",
"    .+.        .+.      ",
"  ..@#$..    ..@#$..    ",
" .######%.  .######%.   ",
"  .####&.    .####&.    ",
"  .*###=.    .*###=.    ",
"  .#-.;>.    .#-.;>.    ",
"  .,. .'.    .,. .'.    ",
"   .   .      .   .     ",
"                        ",
"                        "};
