/* XPM */
static const char * calc_xpm[] = {
"24 24 142 2",
"  	c None",
". 	c #000000",
"+ 	c #484848",
"@ 	c #9B9B9B",
"# 	c #D7D7D7",
"$ 	c #C0C0C0",
"% 	c #8A8A8A",
"& 	c #313434",
"* 	c #515151",
"= 	c #4E4E4E",
"- 	c #303032",
"; 	c #8C8C84",
"> 	c #515D51",
", 	c #424C42",
"' 	c #495449",
") 	c #434D43",
"! 	c #6A7367",
"~ 	c #2F3031",
"{ 	c #6B7B6B",
"] 	c #384038",
"^ 	c #4D594D",
"/ 	c #606F60",
"( 	c #2E2F30",
"_ 	c #2E2E30",
": 	c #4C4C48",
"< 	c #676761",
"[ 	c #393935",
"} 	c #2D2D2F",
"| 	c #6C6C6C",
"1 	c #121212",
"2 	c #6D6D6D",
"3 	c #2D2C2E",
"4 	c #8A8D8D",
"5 	c #2D2F2F",
"6 	c #161617",
"7 	c #545356",
"8 	c #303031",
"9 	c #A5A8A9",
"0 	c #636869",
"a 	c #626667",
"b 	c #616566",
"c 	c #606365",
"d 	c #5F6264",
"e 	c #5E6162",
"f 	c #5D5F61",
"g 	c #5C5E60",
"h 	c #5B5D5F",
"i 	c #5A5C5E",
"j 	c #595A5D",
"k 	c #58595B",
"l 	c #57575A",
"m 	c #565659",
"n 	c #555457",
"o 	c #2C2B2D",
"p 	c #A5A7A8",
"q 	c #7B7B7B",
"r 	c #ACACAC",
"s 	c #2B2A2C",
"t 	c #A4A6A7",
"u 	c #565656",
"v 	c #8E8E8E",
"w 	c #979797",
"x 	c #676767",
"y 	c #B5B5B5",
"z 	c #A0A0A0",
"A 	c #2B2A2B",
"B 	c #A3A6A6",
"C 	c #4D4F51",
"D 	c #5D5E60",
"E 	c #4A4B4D",
"F 	c #5A5B5C",
"G 	c #474749",
"H 	c #575759",
"I 	c #434345",
"J 	c #413F42",
"K 	c #2A292B",
"L 	c #A3A5A6",
"M 	c #4C4F50",
"N 	c #494A4C",
"O 	c #464748",
"P 	c #535255",
"Q 	c #525054",
"R 	c #514F52",
"S 	c #504E51",
"T 	c #2A282A",
"U 	c #A2A4A5",
"V 	c #929292",
"W 	c #818181",
"X 	c #737373",
"Y 	c #29282A",
"Z 	c #3A3A3A",
"` 	c #808080",
" .	c #757575",
"..	c #8D8D8D",
"+.	c #A2A3A5",
"@.	c #858788",
"#.	c #848687",
"$.	c #6A6B6D",
"%.	c #595A5C",
"&.	c #828284",
"*.	c #818184",
"=.	c #565558",
"-.	c #555558",
";.	c #7F7E81",
">.	c #7E7E80",
",.	c #525154",
"'.	c #BABABA",
").	c #292629",
"!.	c #A1A2A3",
"~.	c #292628",
"{.	c #A4A4A4",
"].	c #727272",
"^.	c #282528",
"/.	c #48494B",
"(.	c #464648",
"_.	c #454547",
":.	c #434144",
"<.	c #434143",
"[.	c #403D40",
"}.	c #4F4B4F",
"|.	c #7B787B",
"1.	c #7A7679",
"2.	c #797578",
"3.	c #232022",
"4.	c #2B2E2E",
"5.	c #3A3B3C",
"6.	c #3A3A3C",
"7.	c #39393B",
"8.	c #38383A",
"9.	c #383739",
"0.	c #363637",
"a.	c #373538",
"b.	c #363537",
"c.	c #363437",
"d.	c #383638",
"e.	c #353235",
"f.	c #343134",
"g.	c #333133",
"h.	c #332F32",
"i.	c #322F31",
"j.	c #312D31",
"k.	c #171818",
"                                                ",
"        . . . . . . . . . . . . . . . . .       ",
"      + @ # $ @ @ @ @ @ @ @ @ @ @ @ @ % &       ",
"      * = = = = = = = = = = = = = = = = -       ",
"      * ; ; > > > > > > > , ' ) > ! ; ; ~       ",
"      * ; ; { { { { { { { ] > ^ / { ; ; (       ",
"      * ; ; ; ; ; ; ; ; ; ; ; ; ; ; ; ; _       ",
"      * : ; ; ; ; ; ; ; ; ; ; ; ; ; < [ }       ",
"      | 1 . . . . . . . . . . . . . . 2 3       ",
"      4 5 . . . . . . . . . . . . . 6 7 8       ",
"      9 0 a b c d e f g h i j k l m n 7 o       ",
"      p . q q . . q q . . q q . . r r . s       ",
"      t . u u . . v w . . x u . . y z . A       ",
"      B C . . D E . . F G . . H I . . J K       ",
"      L M . . E N . . G O . . I P Q R S T       ",
"      U . V u . . W x . . X X . . r r . Y       ",
"      U . Z Z . . Z | . . `  .. . ..... Y       ",
"      +.f @.#.$.%.&.*.=.-.;.>.,.. y '.. ).      ",
"      !.. q q . . q q . . q q . . ..... ~.      ",
"      !.. u u . . u V . . X {.. . ].].. ^.      ",
"      h /.. . (._.. . :.<.. . [.}.|.1.2.3.      ",
"      4.5.6.7.8.9.0.a.b.c.d.e.f.g.h.i.j.k.      ",
"                                                ",
"                                                "};
