/* XPM */     
static const char *  	    color_xpm[] = {
"24 24 60 1", 
" 	c None",
".	c #000000",
"+	c #FF4B39",
"@	c #FF6353",
"#	c #FF5B4B",
"$	c #FF3B21",
"%	c #FF4D3B",
"&	c #FF6F64",
"*	c #FF7770",
"=	c #FF5D4C",
"-	c #FF3418",
";	c #FF6454",
">	c #FF8F8F",
",	c #FF4C35",
"'	c #FF5F4F",
")	c #FF4E31",
"!	c #FF432B",
"~	c #FF523B",
"{	c #FF290C",
"]	c #2FC31C",
"^	c #15B215",
"/	c #000700",
"(	c #FF391E",
"_	c #FF4E37",
":	c #FF2B0E",
"<	c #1BF21B",
"[	c #1AFF1A",
"}	c #16C116",
"|	c #074207",
"1	c #000500",
"2	c #20202B",
"3	c #38628D",
"4	c #4174A8",
"5	c #58587D",
"6	c #1BDE1B",
"7	c #39FF39",
"8	c #1BE21B",
"9	c #1DC41D",
"0	c #030304",
"a	c #598EC0",
"b	c #679BCC",
"c	c #4177AA",
"d	c #504E75",
"e	c #1BD61B",
"f	c #1BDA1B",
"g	c #020405",
"h	c #85B8E8",
"i	c #477EB2",
"j	c #285E95",
"k	c #2FB619",
"l	c #1DC61D",
"m	c #30B316",
"n	c #132432",
"o	c #235B8F",
"p	c #2FB419",
"q	c #464665",
"r	c #2E6399",
"s	c #444469",
"t	c #4F4F76",
"u	c #464469",
"                        ",
"                        ",
"                        ",
"                        ",
"                        ",
"          ....          ",
"         .+@#$.         ",
"        .%&*&=-.        ",
"        .;*>*;,.        ",
"        .'&*&=).        ",
"       ..!=;=~{.        ",
"      .]^/(_):...       ",
"     .]<[}|1.2345.      ",
"     .6[7[890abacd.     ",
"     .e<[<f9gbhbij.     ",
"     .kf8flmnabaco.     ",
"      .p99m.qcicrs.     ",
"       ......tjou.      ",
"             ....       ",
"                        ",
"                        ",
"                        ",
"                        ",
"                        "};
