/* XPM */
static const char * datasrc_xpm[] = {
"24 24 87 1",
" 	c None",
".	c #000000",
"+	c #D7D7D7",
"@	c #A7A7A7",
"#	c #C6C6C6",
"$	c #434343",
"%	c #A3A3A3",
"&	c #353535",
"*	c #555555",
"=	c #A4A4A4",
"-	c #CCCCCC",
";	c #323232",
">	c #424242",
",	c #666666",
"'	c #7A7A7A",
")	c #2E2E2E",
"!	c #A2A2A2",
"~	c #383838",
"{	c #707070",
"]	c #CBCBCB",
"^	c #A9A9A9",
"/	c #0F0F0F",
"(	c #3B3B3B",
"_	c #0A0A0A",
":	c #151515",
"<	c #5B5B5B",
"[	c #262626",
"}	c #1A1A1A",
"|	c #616161",
"1	c #4E4E4E",
"2	c #ACACAC",
"3	c #A5A5A5",
"4	c #8C8C8C",
"5	c #A1A1A1",
"6	c #FFFFFF",
"7	c #F2F2F2",
"8	c #C3C3C3",
"9	c #F1F1F1",
"0	c #C9C9C9",
"a	c #242424",
"b	c #9C9C9C",
"c	c #3C3C3C",
"d	c #5D5D5D",
"e	c #575757",
"f	c #747474",
"g	c #494949",
"h	c #464646",
"i	c #C1C1C1",
"j	c #505050",
"k	c #989898",
"l	c #C2C2C2",
"m	c #646464",
"n	c #565656",
"o	c #606060",
"p	c #C0C0C0",
"q	c #A6A6A6",
"r	c #BFBFBF",
"s	c #BEBEBE",
"t	c #909090",
"u	c #2F2F2F",
"v	c #1F1F1F",
"w	c #727272",
"x	c #090909",
"y	c #7E7E7E",
"z	c #2C2C2C",
"A	c #868686",
"B	c #797979",
"C	c #6C6C6C",
"D	c #C8C8C8",
"E	c #CACACA",
"F	c #BDBDBD",
"G	c #8E8E8E",
"H	c #F0F0F0",
"I	c #C7C7C7",
"J	c #9B9B9B",
"K	c #3E3E3E",
"L	c #111111",
"M	c #656565",
"N	c #6B6B6B",
"O	c #F3F3F3",
"P	c #F8F8F8",
"Q	c #EFEFEF",
"R	c #D1D1D1",
"S	c #D2D2D2",
"T	c #CECECE",
"U	c #919191",
"V	c #B4B4B4",
"                        ",
" ....................   ",
" .++++++@++++++++++#.   ",
" .+$%&*%=-;>,')!~{]^.   ",
" .+/(_:<=%[}<%;|;1]^.   ",
" .+-----=------]]]]^.   ",
" .2!===34!!5%%55555'.   ",
" .677777877777779990.   ",
" .6abcd78@ef7gh@ijk0.   ",
" .6@77778l@emlmno990.   ",
" .677777877777799990.   ",
" .-plll8qppplirspprt.   ",
" .677777l77777999990.   ",
" .6uvwxyl7zfA9Bmdi90.   ",
" .6fAyl7i7fC9@tt999D.   ",
" .699977i9999999999].   ",
" .Espppi=sssppFFssFG.   ",
" .699999p999999999HI.   ",
" .6JKLMir9cgmt|iNJHI.   ",
" .699OP9F9999999HHH0.   ",
" .QRRRSTU---]]]IEEDV.   ",
" ....................   ",
"                        ",
"                        "};
