/* XPM */
static const char * deldecimal_xpm[] = {
"24 24 3 1",
" 	c None",
".	c #000000",
"+	c #314E6C",
"                        ",
"                        ",
"                        ",
"                        ",
"       ..   ..          ",
"      .  . .  .         ",
"      .  . .  .         ",
"      .  . .  .         ",
"      .  . .  .         ",
"    . .  . .  .         ",
"    .  ..   ..          ",
"                        ",
"                 ++     ",
"    ..           ++     ",
"   .  .   +      ++     ",
"   .  .  ++      ++     ",
"   .  . +++++++++++     ",
"   .  . +++++++++++     ",
"   .  .  ++             ",
"    ..    +             ",
"                        ",
"                        ",
"                        ",
"                        "};
