/* XPM */
static const char * dice_xpm[] = {
"24 24 257 2",
"  	c None",
". 	c #000000",
"+ 	c #120A09",
"@ 	c #9E5649",
"# 	c #D87C67",
"$ 	c #DA8270",
"% 	c #D9806D",
"& 	c #CD6F5E",
"* 	c #A94E43",
"= 	c #130806",
"- 	c #1E100C",
"; 	c #BA6254",
"> 	c #D7806E",
", 	c #D88270",
"' 	c #D77C6B",
") 	c #D88271",
"! 	c #DB8874",
"~ 	c #D8846F",
"{ 	c #C35F50",
"] 	c #874338",
"^ 	c #B17A71",
"/ 	c #D67B67",
"( 	c #DA8371",
"_ 	c #D87B6C",
": 	c #C97766",
"< 	c #D88373",
"[ 	c #D9796A",
"} 	c #D97E6D",
"| 	c #D77E6B",
"1 	c #A85349",
"2 	c #69362F",
"3 	c #1E0D0B",
"4 	c #CE9B93",
"5 	c #D67C69",
"6 	c #D98573",
"7 	c #D98372",
"8 	c #473B25",
"9 	c #D5C8A2",
"0 	c #D77B6C",
"a 	c #DE8373",
"b 	c #D57E6B",
"c 	c #A95542",
"d 	c #703630",
"e 	c #813E33",
"f 	c #D6BDB6",
"g 	c #D57A64",
"h 	c #DB8572",
"i 	c #D87E6F",
"j 	c #D88171",
"k 	c #D98272",
"l 	c #DD806E",
"m 	c #D47B66",
"n 	c #944034",
"o 	c #372823",
"p 	c #994E43",
"q 	c #CFBFBA",
"r 	c #D58578",
"s 	c #D77B67",
"t 	c #DC8773",
"u 	c #DA8674",
"v 	c #DA8070",
"w 	c #D98271",
"x 	c #DC836F",
"y 	c #BD614E",
"z 	c #6B302B",
"A 	c #31332D",
"B 	c #954437",
"C 	c #A64E42",
"D 	c #AC5E52",
"E 	c #CE968F",
"F 	c #C56558",
"G 	c #CE6E5E",
"H 	c #D57965",
"I 	c #D1725F",
"J 	c #BB594A",
"K 	c #AD524D",
"L 	c #3D382F",
"M 	c #231914",
"N 	c #7D6D47",
"O 	c #ECCFAD",
"P 	c #D88672",
"Q 	c #D8987C",
"R 	c #632B21",
"S 	c #783636",
"T 	c #6D2D32",
"U 	c #733134",
"V 	c #702F2F",
"W 	c #8B4139",
"X 	c #9D4539",
"Y 	c #AF4A3E",
"Z 	c #AC524A",
"` 	c #994841",
" .	c #414139",
"..	c #C36F61",
"+.	c #C67565",
"@.	c #784B3B",
"#.	c #BDAF85",
"$.	c #D67D6A",
"%.	c #090403",
"&.	c #6A342D",
"*.	c #6F2E32",
"=.	c #652C2D",
"-.	c #692932",
";.	c #652A2F",
">.	c #6B302F",
",.	c #793733",
"'.	c #A1453A",
").	c #654036",
"!.	c #D19577",
"~.	c #DC8272",
"{.	c #1E0E09",
"].	c #5D2B25",
"^.	c #672E2D",
"/.	c #642B2D",
"(.	c #5B262C",
"_.	c #58232A",
":.	c #6C2A34",
"<.	c #7D3D33",
"[.	c #50352C",
"}.	c #C26F5B",
"|.	c #96875E",
"1.	c #D79782",
"2.	c #D57F70",
"3.	c #BFA677",
"4.	c #DD8270",
"5.	c #381814",
"6.	c #572520",
"7.	c #5D2A27",
"8.	c #542828",
"9.	c #5C2E2D",
"0.	c #743D32",
"a.	c #140806",
"b.	c #D67B66",
"c.	c #D77E6E",
"d.	c #726544",
"e.	c #CF8470",
"f.	c #070505",
"g.	c #5F362C",
"h.	c #A7614F",
"i.	c #9B5549",
"j.	c #6B352E",
"k.	c #140807",
"l.	c #35342F",
"m.	c #89554B",
"n.	c #D17664",
"o.	c #A0825A",
"p.	c #E09781",
"q.	c #D87B6B",
"r.	c #DA856F",
"s.	c #CC6F5D",
"t.	c #9C4639",
"u.	c #1B0D09",
"v.	c #151716",
"w.	c #8A4D40",
"x.	c #D17965",
"y.	c #D8806E",
"z.	c #54492F",
"A.	c #B68C75",
"B.	c #D67A6B",
"C.	c #8B5847",
"D.	c #D8CA97",
"E.	c #D77863",
"F.	c #AA5A51",
"G.	c #21110D",
"H.	c #343835",
"I.	c #040201",
"J.	c #CFA199",
"K.	c #D77D6E",
"L.	c #D77A6B",
"M.	c #D87E6E",
"N.	c #C67162",
"O.	c #825D48",
"P.	c #D67F6D",
"Q.	c #A35040",
"R.	c #7F3933",
"S.	c #1F2120",
"T.	c #693027",
"U.	c #D0A8A0",
"V.	c #C7705D",
"W.	c #B6A672",
"X.	c #DE927F",
"Y.	c #D87F6F",
"Z.	c #D88070",
"`.	c #DE8371",
" +	c #D77865",
".+	c #A34B3A",
"++	c #52312B",
"@+	c #834137",
"#+	c #CFB9B4",
"$+	c #D3715E",
"%+	c #73523D",
"&+	c #D37E6D",
"*+	c #D98171",
"=+	c #BC7164",
"-+	c #AD9D6C",
";+	c #E49F87",
">+	c #CC745D",
",+	c #80342E",
"'+	c #31302A",
")+	c #A04E42",
"!+	c #C49E98",
"~+	c #E2C8C5",
"{+	c #D57F6E",
"]+	c #D87B67",
"^+	c #D9826E",
"/+	c #D98771",
"(+	c #B26554",
"_+	c #D77C67",
":+	c #A94C41",
"<+	c #46302A",
"[+	c #34332E",
"}+	c #883B2F",
"|+	c #95463F",
"1+	c #833B37",
"2+	c #8E443A",
"3+	c #A65244",
"4+	c #B25346",
"5+	c #B85649",
"6+	c #B35043",
"7+	c #BB5348",
"8+	c #A7514C",
"9+	c #3F3E36",
"0+	c #232522",
"a+	c #421E15",
"b+	c #713332",
"c+	c #722E35",
"d+	c #692C30",
"e+	c #702A34",
"f+	c #703130",
"g+	c #7A3532",
"h+	c #9C463A",
"i+	c #A84840",
"j+	c #7B433A",
"k+	c #393E39",
"l+	c #723527",
"m+	c #622B2A",
"n+	c #682D2E",
"o+	c #682B30",
"p+	c #5F262D",
"q+	c #662B30",
"r+	c #62252F",
"s+	c #8B4237",
"t+	c #583C32",
"u+	c #3B413E",
"v+	c #3F1C16",
"w+	c #622B26",
"x+	c #66302D",
"y+	c #5A272B",
"z+	c #502128",
"A+	c #6A2E33",
"B+	c #703931",
"C+	c #552C25",
"D+	c #201513",
"E+	c #27100D",
"F+	c #301411",
"G+	c #371B16",
"H+	c #2B130E",
"              . .                               ",
"        + @ # $ % & * =                         ",
"      - ; > , ' ) ! ~ { ]                       ",
"      ^ / ( _ : < [ } | 1 2                     ",
"    3 4 5 6 7 8 9 0 a b c d                     ",
"    e f g h 7 i j k l m n o       . .           ",
"    p q r s t u v w x y z A + @ # $ % & * =     ",
"    B C D E F G H I J K L M ; > N O ) P Q { ]   ",
"    R S T U V W X Y Z `  .^ / ( ..+.< @.#.$.1 2 ",
"    %.&.*.=.-.;.>.,.'.).3 4 5 !.7 8 9 0 ~.b c d ",
"      {.].^./.(._.:.<.[.e f }.|.1.i 2.3.4.m n o ",
"          5.6.7.8.9.0.a.p q r b.t u c.d.e.y z A ",
"        f.g.h.i.j.k..   B C D E F G H I J K L l.",
"      m.n.o.p.q.r.s.t.u.R S T U V W X Y Z `  .v.",
"    w.x.y.z.A.B.C.D.E.F.G.&.*.=.-.;.>.,.'.).H.  ",
"  I.J.$.7 K.L.M.N.O.P.Q.R.{.].^./.(._.:.<.[.S.  ",
"  T.U.V.W.X.Y.Z.Z.`. +.+++    5.6.7.8.9.0.a.    ",
"  @+#+$+%+&+*+=+-+;+>+,+'+          . . .       ",
"  )+!+~+{+]+^+/+(+_+:+<+[+                      ",
"  }+|+1+2+3+4+5+6+7+8+9+0+                      ",
"  a+b+c+d+e+f+g+h+i+j+k+.                       ",
"    l+m+n+o+p+q+r+s+t+u+                        ",
"      v+w+x+y+z+A+B+C+                          ",
"          D+E+F+G+H+                            "};
