/* XPM */
static const char * font_xpm[] = {
"24 24 61 1",
" 	c None",
".	c #8F814C",
"+	c #6D6239",
"@	c #52492B",
"#	c #6A5D38",
"$	c #37311D",
"%	c #000000",
"&	c #010101",
"*	c #9E8E54",
"=	c #322C1A",
"-	c #70653B",
";	c #463F24",
">	c #645A35",
",	c #0E0C07",
"'	c #6B6139",
")	c #1B180D",
"!	c #50482B",
"~	c #2C2818",
"{	c #302B1A",
"]	c #595030",
"^	c #252112",
"/	c #292516",
"(	c #1E1B10",
"_	c #5F5532",
":	c #70643B",
"<	c #827544",
"[	c #3D3721",
"}	c #292416",
"|	c #2C2717",
"1	c #252114",
"2	c #413922",
"3	c #3E3721",
"4	c #5C5331",
"5	c #1A170E",
"6	c #1E1A10",
"7	c #403922",
"8	c #584F2F",
"9	c #16140C",
"0	c #312B1A",
"a	c #0F0D07",
"b	c #2D2818",
"c	c #322D1A",
"d	c #231F11",
"e	c #3C3620",
"f	c #5A5230",
"g	c #332E1B",
"h	c #12100A",
"i	c #4F472A",
"j	c #413A23",
"k	c #302B19",
"l	c #342E1B",
"m	c #4A4227",
"n	c #6E633A",
"o	c #080704",
"p	c #2F2919",
"q	c #4C4529",
"r	c #51472B",
"s	c #242113",
"t	c #322D1B",
"u	c #5E5432",
"v	c #211E12",
"                        ",
"                        ",
"                        ",
"                        ",
"                .+@     ",
"               #$% &    ",
"              *=%       ",
"    -;        >,        ",
"   '  )       !&        ",
"      ~       {%        ",
"    ]^/       ({&  _    ",
"   :  /  <[$   }|12     ",
"  3   {  4&5            ",
"  6  &7  8&9 (0         ",
"  abc de f&gb&hc        ",
"         i&j k&l        ",
"         m&/ 8&/        ",
"         m&/ 8&/        ",
"         m&9 nop        ",
"         q&&rs5t        ",
"         u/v pj         ",
"                        ",
"                        ",
"                        "};
