/* XPM */
static const char * label_xpm[] = {
"24 24 59 1",
" 	c None",
".	c #FAFAFA",
"+	c #646464",
"@	c #CFCFCF",
"#	c #BEBEBE",
"$	c #000000",
"%	c #999999",
"&	c #F3F3F3",
"*	c #272727",
"=	c #292929",
"-	c #ECECEC",
";	c #252525",
">	c #8A8A8A",
",	c #171717",
"'	c #0C0C0C",
")	c #878787",
"!	c #7B7B7B",
"~	c #4B4B4B",
"{	c #949494",
"]	c #2E2E2E",
"^	c #F5F5F5",
"/	c #848484",
"(	c #EBEBEB",
"_	c #BDBDBD",
":	c #0D0D0D",
"<	c #D0D0D0",
"[	c #0F0F0F",
"}	c #DADADA",
"|	c #BCBCBC",
"1	c #020202",
"2	c #EFEFEF",
"3	c #1E1E1E",
"4	c #F0F0F0",
"5	c #090909",
"6	c #F9F9F9",
"7	c #393939",
"8	c #828282",
"9	c #E5E5E5",
"0	c #A1A1A1",
"a	c #414141",
"b	c #C6C6C6",
"c	c #282828",
"d	c #939393",
"e	c #737373",
"f	c #656565",
"g	c #969696",
"h	c #494949",
"i	c #E0E0E0",
"j	c #A0A0A0",
"k	c #353535",
"l	c #515151",
"m	c #444444",
"n	c #6A6A6A",
"o	c #4E4E4E",
"p	c #5D5D5D",
"q	c #1A1A1A",
"r	c #161616",
"s	c #ADADAD",
"t	c #8C8C8C",
"                        ",
"                        ",
"........................",
"........................",
"........................",
"........................",
"........................",
".........+@.............",
"........#$%.............",
".......&*=+..-;>,').....",
".......!~{]..^$/(_:.....",
"......<[}|12.<3..45.....",
".....678.9$_.0a..bc.....",
".....d$$$$$).ef..gh.....",
"....i:j...kl.m>..fn.....",
"....ok6...pq.rs..kt.....",
"........................",
"........................",
"........................",
"........................",
"........................",
"........................",
"                        ",
"                        "};
