/* XPM */
static const char * layout_xpm[] = {
"24 24 143 2",
"  	c None",
". 	c #000000",
"+ 	c #D3D3D3",
"@ 	c #F6F6F6",
"# 	c #FFFFFF",
"$ 	c #F9F9F9",
"% 	c #DADADA",
"& 	c #585858",
"* 	c #C7C7C7",
"= 	c #D1D1D1",
"- 	c #D6D6D6",
"; 	c #D1940C",
"> 	c #FEFEFE",
", 	c #FDFDFD",
"' 	c #C0C0C0",
") 	c #E1E1E1",
"! 	c #F0F0F0",
"~ 	c #9B9B9B",
"{ 	c #EED680",
"] 	c #FCFCFB",
"^ 	c #FBFBFB",
"/ 	c #AFAFAE",
"( 	c #E9E9E9",
"_ 	c #DFDFDF",
": 	c #8F8F8F",
"< 	c #FAFAF9",
"[ 	c #F9F9F8",
"} 	c #A4A4A3",
"| 	c #F4F4F4",
"1 	c #CFCFCF",
"2 	c #A2A2A2",
"3 	c #414141",
"4 	c #1A1A1A",
"5 	c #7F7F7F",
"6 	c #C8C8C7",
"7 	c #F8F8F7",
"8 	c #F8F7F6",
"9 	c #9E9E9E",
"0 	c #C7C7C6",
"a 	c #7E7E7D",
"b 	c #F7F6F5",
"c 	c #F6F6F4",
"d 	c #F4F3F2",
"e 	c #DEDDDC",
"f 	c #D3D2D0",
"g 	c #B7B7B5",
"h 	c #9F9E9D",
"i 	c #706F6F",
"j 	c #65625A",
"k 	c #50504F",
"l 	c #F5F4F3",
"m 	c #F2F2F0",
"n 	c #E4E4E2",
"o 	c #DAD9D7",
"p 	c #D8D8D6",
"q 	c #CDCCCA",
"r 	c #AFAEAC",
"s 	c #88847B",
"t 	c #4F4F4F",
"u 	c #F3F3F1",
"v 	c #EFEFED",
"w 	c #EEEDEB",
"x 	c #EDECEA",
"y 	c #E9E8E6",
"z 	c #D5D4D3",
"A 	c #C4C3C2",
"B 	c #8F8A81",
"C 	c #F6F5F4",
"D 	c #F5F5F3",
"E 	c #7C7B7B",
"F 	c #282827",
"G 	c #323232",
"H 	c #323231",
"I 	c #9A9A98",
"J 	c #F1F1EF",
"K 	c #F1F0EE",
"L 	c #EAE9E7",
"M 	c #E5E4E2",
"N 	c #E4E3E0",
"O 	c #D2D1CE",
"P 	c #8D887E",
"Q 	c #F3F2F1",
"R 	c #7A7A79",
"S 	c #191919",
"T 	c #F0EFED",
"U 	c #EFEEEC",
"V 	c #787776",
"W 	c #747472",
"X 	c #E2E1DE",
"Y 	c #E1DFDC",
"Z 	c #979288",
"` 	c #F0F0EE",
" .	c #272727",
"..	c #616160",
"+.	c #5C5C5B",
"@.	c #A49E93",
"#.	c #ECEBE9",
"$.	c #E8E7E4",
"%.	c #E3E2DF",
"&.	c #E2E0DD",
"*.	c #E1E0DC",
"=.	c #E0DFDB",
"-.	c #A19C90",
";.	c #314E6C",
">.	c #E9E8E5",
",.	c #E5E4E1",
"'.	c #E3E2DE",
").	c #DFDEDA",
"!.	c #DEDDD9",
"~.	c #DDDCD8",
"{.	c #A19B90",
"].	c #7590AE",
"^.	c #E7E6E3",
"/.	c #E7E5E2",
"(.	c #B6B5B2",
"_.	c #DCDBD7",
":.	c #2F2F2E",
"<.	c #72716F",
"[.	c #DBD9D5",
"}.	c #D9D7D3",
"|.	c #9F998D",
"1.	c #DDDBD7",
"2.	c #DCDAD6",
"3.	c #D8D6D2",
"4.	c #9E988D",
"5.	c #E0DEDA",
"6.	c #D8D6D1",
"7.	c #D7D5D1",
"8.	c #9D978B",
"9.	c #E1DFDB",
"0.	c #DEDCD8",
"a.	c #D7D6D1",
"b.	c #D5D3CE",
"c.	c #9B958A",
"d.	c #999891",
"e.	c #A39E92",
"f.	c #A39D92",
"g.	c #A39D91",
"h.	c #A29C90",
"i.	c #A19B8F",
"j.	c #9D978C",
"k.	c #9B968A",
"l.	c #676359",
"                                                ",
"      . . . . . . . . . . . . .                 ",
"    . + @ # # # # # # # # $ % & .               ",
"    . @ # # # # # # # # # # * = - .             ",
"; ; ; ; ; # # # # # > # > , ' ) ! ~ .           ",
"; { { { ; # # # > , ] , ] ^ / ( # _ : .         ",
"; { { { ; # > , ] ^ < ^ < [ } ! # | 1 2 .       ",
"; { { { ; 3 4 5 6 [ 7 [ 7 8 9 . . . . . . .     ",
"; { { { ; ^ < 0 a 8 b 8 b c d e f g h i j .     ",
"; { { { ; [ 7 8 k c l c l d m n o p q r s .     ",
"; ; ; ; ; 8 b c t d u d u m v w x y z A B .     ",
"    . # C D E F G H I m J K w . L M N O P .     ",
"    . # d Q m R S R T K T U V . W N X Y Z .     ",
"    . # d Q m `  .K T K T ... . . +.X Y @..     ",
"    . # ` v v U w x x x x #.$.. %.&.*.=.-..     ",
";.;.;.;.;.;.;.;.;.;.;.;.>.>.,.. '.).!.~.{..     ",
";.].].].].].].].].].].;.^./.(.. =.!.~._.{..     ",
";.].].].].].].].].].].;.:.. . <.!._.[.}.|..     ",
";.].].].].].].].].].].;.'.*.*.!.1.2.}.3.4..     ",
";.;.;.;.;.;.;.;.;.;.;.;.*.).5.1.2.}.6.7.8..     ",
"    . = 9.5.).!.=.!.5.!.5.0.0.2.2.3.a.b.c..     ",
"    . d.e.@.f.g.f.-.h.-.h.i.{.|.|.j.j.k.l..     ",
"      . . . . . . . . . . . . . . . . . .       ",
"                                                "};
