/* XPM */
static const char * new_xpm[] = {
"24 24 127 2",
"  	c None",
". 	c #000000",
"+ 	c #0E0E0E",
"@ 	c #282828",
"# 	c #616161",
"$ 	c #D3D3D3",
"% 	c #F6F6F6",
"& 	c #FFFFFF",
"* 	c #F9F9F9",
"= 	c #F9F9F8",
"- 	c #E7E7E7",
"; 	c #E4E4E4",
"> 	c #CDCDCD",
", 	c #1F1F1F",
"' 	c #EFEFEE",
") 	c #AFAFAE",
"! 	c #E9E9E9",
"~ 	c #B3B3B3",
"{ 	c #383838",
"] 	c #FEFEFE",
"^ 	c #FDFDFD",
"/ 	c #EEEEEE",
"( 	c #A4A4A3",
"_ 	c #F0F0F0",
": 	c #F4F4F4",
"< 	c #ABABAB",
"[ 	c #050505",
"} 	c #FCFCFB",
"| 	c #FBFBFB",
"1 	c #F2F2F2",
"2 	c #9E9E9E",
"3 	c #FAFAF9",
"4 	c #D4D4D3",
"5 	c #B9B7B6",
"6 	c #838381",
"7 	c #848381",
"8 	c #6A6763",
"9 	c #F8F8F7",
"0 	c #F8F7F6",
"a 	c #F3F2F1",
"b 	c #E0E0DF",
"c 	c #DCDAD8",
"d 	c #CACAC8",
"e 	c #B6B6B4",
"f 	c #72706C",
"g 	c #F7F6F5",
"h 	c #F6F6F4",
"i 	c #F4F3F2",
"j 	c #F1F0EF",
"k 	c #F0EFED",
"l 	c #E5E4E2",
"m 	c #C4C3C0",
"n 	c #817D74",
"o 	c #F5F4F3",
"p 	c #EBEAE8",
"q 	c #E1DFDC",
"r 	c #8B867D",
"s 	c #F3F3F1",
"t 	c #F2F2F0",
"u 	c #EFEFED",
"v 	c #EEEDEB",
"w 	c #EDEDEB",
"x 	c #E5E5E2",
"y 	c #A49E93",
"z 	c #F6F5F4",
"A 	c #F5F5F3",
"B 	c #F1F1EF",
"C 	c #F1F0EE",
"D 	c #ECEBE9",
"E 	c #E7E6E3",
"F 	c #E2E1DF",
"G 	c #E4E3E0",
"H 	c #F0F0EE",
"I 	c #EFEEEC",
"J 	c #E8E7E5",
"K 	c #E5E4E1",
"L 	c #E2E1DE",
"M 	c #EDECEA",
"N 	c #E8E7E4",
"O 	c #E3E2DF",
"P 	c #E2E0DD",
"Q 	c #E1E0DC",
"R 	c #E0DFDB",
"S 	c #A19C90",
"T 	c #E9E8E5",
"U 	c #E6E4E1",
"V 	c #E3E2DE",
"W 	c #DFDEDA",
"X 	c #DEDDD9",
"Y 	c #DDDCD8",
"Z 	c #A19B90",
"` 	c #E9E8E6",
" .	c #E7E5E2",
"..	c #E4E3DF",
"+.	c #DCDBD7",
"@.	c #E6E5E2",
"#.	c #E5E4E0",
"$.	c #E2E1DD",
"%.	c #DBD9D5",
"&.	c #D9D7D3",
"*.	c #9F998D",
"=.	c #E4E2DF",
"-.	c #DDDBD7",
";.	c #DCDAD6",
">.	c #D8D6D2",
",.	c #9E988D",
"'.	c #EDEDED",
").	c #E1E0DD",
"!.	c #E0DEDA",
"~.	c #D8D6D1",
"{.	c #D7D5D1",
"].	c #9D978B",
"^.	c #D1D1D1",
"/.	c #E1DFDB",
"(.	c #DEDCD8",
"_.	c #D7D6D1",
":.	c #D5D3CE",
"<.	c #9B958A",
"[.	c #999891",
"}.	c #A39E92",
"|.	c #A39D92",
"1.	c #A39D91",
"2.	c #A29C90",
"3.	c #A19B8F",
"4.	c #9D978C",
"5.	c #9B968A",
"6.	c #676359",
"                                                ",
"      . . . . . . . . . . . . . + @ #           ",
"    . $ % & & & & & & & & * = = - ; > ,         ",
"    . % & & & & & & & & & & = ' ) ! & ~ {       ",
"    . & & & & & & & ] & ] ^ = / ( _ & : < [     ",
"    . & & & & & ] ^ } ^ } | = 1 2 . . . . .     ",
"    . & & & ] ^ } | 3 | 3 = = : 4 5 6 7 8 .     ",
"    . & ] ^ } | 3 = 9 = 9 0 = a b c d e f .     ",
"    . & } | 3 = 9 0 g 0 g h i j k k l m n .     ",
"    . & 3 = 9 0 g h o h o i i i i p q q r .     ",
"    . & 9 0 g h o i s i s t u v w x q q y .     ",
"    . & z A i i s t B t B C v D E F G q y .     ",
"    . & i a t H u C k C k I D J K G L q y .     ",
"    . & i a t H u C k C k I D J K G L q y .     ",
"    . & H u u I v M M M M D N E O P Q R S .     ",
"    . & w M D D D p T p T T K U V W X Y Z .     ",
"    . & p ` ` J N N E N E  ...V R X Y +.Z .     ",
"    . & E @.@.@.K U #.U #...$.R X +.%.&.*..     ",
"    . * G O V =...$.V $.V Q Q X -.;.&.>.,..     ",
"    . '.).q Q R $.R Q R Q W !.-.;.&.~.{.]..     ",
"    . ^./.!.W X R X !.X !.(.(.;.;.>._.:.<..     ",
"    . [.}.y |.1.|.S 2.S 2.3.Z *.*.4.4.5.6..     ",
"      . . . . . . . . . . . . . . . . . .       ",
"                                                "};
