/* XPM */
static const char * newcol_xpm[] = {
"24 24 50 1",
" 	c None",
".	c #000000",
"+	c #FFFFFF",
"@	c #ABABAB",
"#	c #DEDEDE",
"$	c #E0E0E0",
"%	c #969696",
"&	c #E1E1E1",
"*	c #E2E2E2",
"=	c #E3E3E3",
"-	c #E4E4E4",
";	c #E5E5E5",
">	c #E6E6E6",
",	c #E7E7E7",
"'	c #E8E8E8",
")	c #D4D4D4",
"!	c #E9E9E9",
"~	c #EAEAEA",
"{	c #D6D6D6",
"]	c #989898",
"^	c #999999",
"/	c #9A9A9A",
"(	c #9B9B9B",
"_	c #9C9C9C",
":	c #9D9D9D",
"<	c #909090",
"[	c #EED680",
"}	c #D2D2D2",
"|	c #BFBFBF",
"1	c #979797",
"2	c #9E9E9E",
"3	c #9F9F9F",
"4	c #A0A0A0",
"5	c #939393",
"6	c #B1B1B1",
"7	c #A1A1A1",
"8	c #A2A2A2",
"9	c #A3A3A3",
"0	c #A4A4A4",
"a	c #A5A5A5",
"b	c #EBEBEB",
"c	c #EDEDED",
"d	c #A6A6A6",
"e	c #A7A7A7",
"f	c #A8A8A8",
"g	c #D8D8D8",
"h	c #D9D9D9",
"i	c #929292",
"j	c #C9B56B",
"k	c #898989",
"                        ",
"                        ",
"......................  ",
".+++@+++++++++++++++#.  ",
".+$$%$$$$$$&*==-;>,').  ",
".+$$%$$.....=--;>'!~{.  ",
".@%%%%%%...]^///(__:<.  ",
".+$$%[[[[.[[[[/}}}}}|.  ",
".+$$%[[[[[[[[[(}}}}}|.  ",
".+$$%[[[[[[[[[_}}}}}|.  ",
".+$&1]]^//(__::223445.  ",
".+&*][[[[[[[[[2}}}}}6.  ",
".+-;/[[[[[[[[[4}}}}}6.  ",
".+;>/[[[[[[[[[4}}}}}6.  ",
".+>,(__:22447888900a1.  ",
".+'!_[[[[[[[[[8}}}}}|.  ",
".+!~:[[[[[[[[[9}}}}}|.  ",
".+~b2[[[[[[[[[0}}}}}|.  ",
".+bc344788900aaddeff/.  ",
".!ghijjjjjjjjjk||||||.  ",
"......................  ",
"                        ",
"                        ",
"                        "};
