/* XPM */
static const char * newplayer_xpm[] = {
"24 24 204 2",
"  	c None",
". 	c #E5D087",
"+ 	c #000000",
"@ 	c #8E7F4F",
"# 	c #DBCB9A",
"$ 	c #F2EACC",
"% 	c #DCCD9A",
"& 	c #111110",
"* 	c #4B4844",
"= 	c #0A0500",
"- 	c #CEC394",
"; 	c #F0E9CE",
"> 	c #FBFAF6",
", 	c #EFE7CA",
"' 	c #DCC986",
") 	c #1D1D1D",
"! 	c #060606",
"~ 	c #444444",
"{ 	c #252525",
"] 	c #AFA87E",
"^ 	c #F0E8CD",
"/ 	c #F0E8CB",
"( 	c #D7C482",
"_ 	c #181817",
": 	c #130A00",
"< 	c #4C3A29",
"[ 	c #150B01",
"} 	c #0E0700",
"| 	c #1D1003",
"1 	c #261504",
"2 	c #361F05",
"3 	c #8C8468",
"4 	c #F1E4B1",
"5 	c #F7EFD1",
"6 	c #DCCE9A",
"7 	c #1B0F01",
"8 	c #412405",
"9 	c #C5751C",
"0 	c #C5741D",
"a 	c #C1731D",
"b 	c #C2731C",
"c 	c #C8741A",
"d 	c #7C450C",
"e 	c #080400",
"f 	c #EFE1B0",
"g 	c #EADCA4",
"h 	c #E4D69E",
"i 	c #8E804F",
"j 	c #2C1804",
"k 	c #5B3107",
"l 	c #D17A1D",
"m 	c #D17B1E",
"n 	c #D37D1F",
"o 	c #D07A1D",
"p 	c #CD761A",
"q 	c #79430C",
"r 	c #2D1905",
"s 	c #311A04",
"t 	c #A95F13",
"u 	c #CC7519",
"v 	c #CC761A",
"w 	c #CC751A",
"x 	c #CB7519",
"y 	c #CA7218",
"z 	c #B66614",
"A 	c #2F1904",
"B 	c #3A1F05",
"C 	c #9B580F",
"D 	c #BE6A15",
"E 	c #83490F",
"F 	c #261402",
"G 	c #2E1803",
"H 	c #8A4C0E",
"I 	c #B56413",
"J 	c #422305",
"K 	c #472605",
"L 	c #934F0D",
"M 	c #321B03",
"N 	c #AC6011",
"O 	c #A55C10",
"P 	c #653607",
"Q 	c #351C02",
"R 	c #0D1112",
"S 	c #292626",
"T 	c #593615",
"U 	c #341B04",
"V 	c #351D04",
"W 	c #341C04",
"X 	c #291704",
"Y 	c #452F1A",
"Z 	c #181E25",
"` 	c #090B0D",
" .	c #25282C",
"..	c #91999F",
"+.	c #899DB0",
"@.	c #6F7A84",
"#.	c #241E1A",
"$.	c #180E04",
"%.	c #1A120C",
"&.	c #222223",
"*.	c #646F7A",
"=.	c #455666",
"-.	c #3D4D5E",
";.	c #090D0F",
">.	c #282C31",
",.	c #A0ABB7",
"'.	c #738EAA",
").	c #7591AC",
"!.	c #506375",
"~.	c #899097",
"{.	c #CCCCCC",
"].	c #C5C6C8",
"^.	c #8D99A5",
"/.	c #6F7F91",
"(.	c #556C83",
"_.	c #586E84",
":.	c #45586B",
"<.	c #0A0D10",
"[.	c #121415",
"}.	c #90989E",
"|.	c #7C95AD",
"1.	c #6D89A5",
"2.	c #6F8BA6",
"3.	c #5C748B",
"4.	c #7C8A99",
"5.	c #F2F3F4",
"6.	c #E7EAED",
"7.	c #A7B8C7",
"8.	c #7E95AC",
"9.	c #66809B",
"0.	c #5D7995",
"a.	c #4E667D",
"b.	c #374656",
"c.	c #0A0C10",
"d.	c #131516",
"e.	c #96A1AD",
"f.	c #66829E",
"g.	c #67839E",
"h.	c #6884A0",
"i.	c #597088",
"j.	c #607285",
"k.	c #E6E8EB",
"l.	c #C9D3DB",
"m.	c #9AACBD",
"n.	c #7990A8",
"o.	c #BBC6D2",
"p.	c #6C859E",
"q.	c #526E8B",
"r.	c #4E6883",
"s.	c #0C1015",
"t.	c #191D20",
"u.	c #8A9EB0",
"v.	c #5C7895",
"w.	c #5E7A97",
"x.	c #607C98",
"y.	c #617D99",
"z.	c #52677C",
"A.	c #CFD5DB",
"B.	c #B8C3D0",
"C.	c #68829C",
"D.	c #BBC7D1",
"E.	c #D5DBE1",
"F.	c #CAD3DB",
"G.	c #4D6A87",
"H.	c #45617E",
"I.	c #0C1016",
"J.	c #1D2227",
"K.	c #8296AA",
"L.	c #56728F",
"M.	c #587491",
"N.	c #597692",
"O.	c #5A7692",
"P.	c #405267",
"Q.	c #B8C3CC",
"R.	c #A9B8C6",
"S.	c #587490",
"T.	c #4E6A87",
"U.	c #4A6684",
"V.	c #44617E",
"W.	c #3F5A78",
"X.	c #0D131A",
"Y.	c #171E27",
"Z.	c #748A9E",
"`.	c #4F6B88",
" +	c #536F8C",
".+	c #53708C",
"++	c #3A4E63",
"@+	c #6F8498",
"#+	c #8FA0B2",
"$+	c #4E6B88",
"%+	c #4C6886",
"&+	c #486482",
"*+	c #3C5774",
"=+	c #354F69",
"-+	c #040608",
";+	c #182330",
">+	c #3E5773",
",+	c #3D5671",
"'+	c #3E5672",
")+	c #3F5874",
"!+	c #405A74",
"~+	c #3C5670",
"{+	c #3B526C",
"]+	c #293B50",
"                                                ",
"                                  . .           ",
"                  + + + + +   @ # $ $ %         ",
"                & + * * = + + - ; > > , '       ",
"              ) ! * ~ { + + + ] ^ > > / (       ",
"              _ : < [ } | 1 2 3 4 5 5 6         ",
"              7 8 9 0 a b c d e f g h i         ",
"              j k l m n o p q r                 ",
"              s t u v w x y z A                 ",
"              B C D E F G H I J                 ",
"                K L M N O K P Q                 ",
"              R S T U V W X Y Z `               ",
"             ...+.@.#.$.%.&.*.=.-.;.            ",
"          >.,.'.).!.~.{.].^./.(._.:.<.          ",
"        [.}.|.1.2.3.4.5.6.7.8.9.0.a.b.c.        ",
"        d.e.f.g.h.i.j.k.l.m.n.o.p.q.r.s.        ",
"        t.u.v.w.x.y.z.A.B.C.D.E.F.G.H.I.        ",
"        J.K.L.M.N.O.P.Q.R.S.q.T.U.V.W.X.        ",
"        Y.Z.`.q. +.+++@+#+$+%+&+H.*+=+-+        ",
"        + ;+>+,+'+)+)+!+>+>+>+~+{+{+]++         ",
"          + + + + + + + + + + + + + +           ",
"                                                ",
"                                                ",
"                                                "};
