/* XPM */
static const char * newrow_xpm[] = {
"24 24 49 1",
" 	c None",
".	c #000000",
"+	c #FFFFFF",
"@	c #ABABAB",
"#	c #DEDEDE",
"$	c #E0E0E0",
"%	c #969696",
"&	c #E1E1E1",
"*	c #E2E2E2",
"=	c #E3E3E3",
"-	c #E4E4E4",
";	c #E5E5E5",
">	c #E6E6E6",
",	c #E7E7E7",
"'	c #E8E8E8",
")	c #D4D4D4",
"!	c #E9E9E9",
"~	c #EAEAEA",
"{	c #D6D6D6",
"]	c #979797",
"^	c #989898",
"/	c #999999",
"(	c #9A9A9A",
"_	c #9B9B9B",
":	c #9C9C9C",
"<	c #9D9D9D",
"[	c #909090",
"}	c #D2D2D2",
"|	c #BFBFBF",
"1	c #9E9E9E",
"2	c #9F9F9F",
"3	c #A0A0A0",
"4	c #939393",
"5	c #EED680",
"6	c #D9C374",
"7	c #A1A1A1",
"8	c #A2A2A2",
"9	c #A3A3A3",
"0	c #A4A4A4",
"a	c #A5A5A5",
"b	c #EBEBEB",
"c	c #EDEDED",
"d	c #A6A6A6",
"e	c #A7A7A7",
"f	c #A8A8A8",
"g	c #D8D8D8",
"h	c #D9D9D9",
"i	c #929292",
"j	c #898989",
"                        ",
"                        ",
"......................  ",
".+++@+++++++++++++++#.  ",
".+$$%$$$$$$&*==-;>,').  ",
".+$$%$$$$$&*=--;>'!~{.  ",
".@%%%%%%%]^^/(((_::<[.  ",
".+$$%}}}}}}}}}(}}}}}|.  ",
".+$$%}}}}}}}}}_}}}}}|.  ",
".+$$%}}}}}}}}}:}}}}}|.  ",
".+$.]^^/((_::<<112334.  ",
".+&..5555555551555556.  ",
".+-...555555553555556.  ",
".+;..5555555553555556.  ",
".+>._::<11337888900a].  ",
".+'!:}}}}}}}}}8}}}}}|.  ",
".+!~<}}}}}}}}}9}}}}}|.  ",
".+~b1}}}}}}}}}0}}}}}|.  ",
".+bc233788900aaddeff(.  ",
".!ghi|||||||||j||||||.  ",
"......................  ",
"                        ",
"                        ",
"                        "};
