/* XPM */
static const char * newtable_xpm[] = {
"24 24 51 1",
" 	c None",
".	c #000000",
"+	c #D3D3D3",
"@	c #ABABAB",
"#	c #A6A6A6",
"$	c #C8C8C8",
"%	c #A2A2A2",
"&	c #E5D087",
"*	c #E4CF88",
"=	c #8F8051",
"-	c #DACA9B",
";	c #F2EACC",
">	c #DCCD9A",
",	c #CDC399",
"'	c #F0E9CE",
")	c #FBFAF6",
"!	c #EFE7CA",
"~	c #DCC986",
"{	c #ADA782",
"]	c #F0E8CD",
"^	c #F0E8CB",
"/	c #D2C084",
"(	c #868686",
"_	c #F2F2F2",
":	c #C4C4C4",
"<	c #EEEDED",
"[	c #928A70",
"}	c #F1E4B1",
"|	c #F7EFD1",
"1	c #DFD4A9",
"2	c #C9C9C9",
"3	c #E9E9E9",
"4	c #EFE1B0",
"5	c #EADCA4",
"6	c #E4D69E",
"7	c #9C9067",
"8	c #A3A3A3",
"9	c #C7C7C7",
"0	c #A1A1A1",
"a	c #F1F1F1",
"b	c #C3C3C3",
"c	c #C5C5C5",
"d	c #ACACAC",
"e	c #ADADAD",
"f	c #AAAAAA",
"g	c #8C8C8C",
"h	c #CCCCCC",
"i	c #D1D1D1",
"j	c #D2D2D2",
"k	c #CECECE",
"l	c #B4B4B4",
"                        ",
" .....................  ",
" .++++@++++@++++@+++#.  ",
" .+$$$%$$$$%$$$$&*$$#.  ",
" .+$$$%$$$$%$$=-;;>$#.  ",
" .+$$$%$$$$%$$,'))!~#.  ",
" .@%%%%%%%%%%%{]))^/(.  ",
" .+$$$%____:_<[}||1_2.  ",
" .+$$$%____:__34567_2.  ",
" .+$$$%____:________2.  ",
" .+$$$%____:________2.  ",
" .@%%%%:::::::::::::8.  ",
" .+$$$%_________:___2.  ",
" .+$$$%_________:___2.  ",
" .+$$$%_________:___2.  ",
" .+$$$%_________:___2.  ",
" .@%%%%:::::::::::::8.  ",
" .+9990aaaabaaaabaaa9.  ",
" .+9990aaaabaaaabaaa9.  ",
" .+9990aaaabaaaabaaa2.  ",
" .cdefghijkfhijkfhhhl.  ",
" .....................  ",
"                        ",
"                        "};
