/* XPM */
static const char * newtree_xpm[] = {
"24 24 94 2",
"  	c None",
". 	c #E5D087",
"+ 	c #E5CB83",
"@ 	c #FF0000",
"# 	c #8E7F4F",
"$ 	c #DBCB9A",
"% 	c #F2EACC",
"& 	c #DCCD9A",
"* 	c #EA4040",
"= 	c #CAA0A0",
"- 	c #CEC394",
"; 	c #F0E9CE",
"> 	c #FBFAF6",
", 	c #EFE7CA",
"' 	c #DCC986",
") 	c #C0C0C0",
"! 	c #00FF00",
"~ 	c #20BF00",
"{ 	c #A9926E",
"] 	c #F0E8CD",
"^ 	c #F0E8CB",
"/ 	c #D7C482",
"( 	c #20F420",
"_ 	c #80D580",
": 	c #7E9D5E",
"< 	c #8B7C61",
"[ 	c #F1E4B1",
"} 	c #F7EFD1",
"| 	c #DCCE9A",
"1 	c #A0CAA0",
"2 	c #7B4E4E",
"3 	c #EEE0AF",
"4 	c #EADCA4",
"5 	c #E4D69E",
"6 	c #9E6C43",
"7 	c #800808",
"8 	c #D18C8C",
"9 	c #80470E",
"0 	c #008E1C",
"a 	c #60E060",
"b 	c #800000",
"c 	c #806060",
"d 	c #F42020",
"e 	c #F12B2B",
"f 	c #789595",
"g 	c #00FFFF",
"h 	c #15EA15",
"i 	c #4BE64B",
"j 	c #4DE6E6",
"k 	c #699769",
"l 	c #801A1A",
"m 	c #806B6B",
"n 	c #E06060",
"o 	c #F81515",
"p 	c #D28B8B",
"q 	c #808080",
"r 	c #803131",
"s 	c #E35555",
"t 	c #C9A5A5",
"u 	c #D58080",
"v 	c #00B871",
"w 	c #309F00",
"x 	c #CF0000",
"y 	c #F61B1B",
"z 	c #CE9595",
"A 	c #00D5AA",
"B 	c #DF0000",
"C 	c #EF3030",
"D 	c #D09090",
"E 	c #7AD77A",
"F 	c #95CE95",
"G 	c #9CC095",
"H 	c #B29595",
"I 	c #C79595",
"J 	c #FC0B0B",
"K 	c #C7ABAB",
"L 	c #FA1010",
"M 	c #00F1E3",
"N 	c #13F913",
"O 	c #009C39",
"P 	c #2BF12B",
"Q 	c #75D875",
"R 	c #40BFBF",
"S 	c #4DB34D",
"T 	c #30EF30",
"U 	c #90D090",
"V 	c #DC6B6B",
"W 	c #6EB5B5",
"X 	c #6BDC6B",
"Y 	c #35EE35",
"Z 	c #40EA40",
"` 	c #54E354",
" .	c #ABC7AB",
"..	c #B5C4B5",
"                                                ",
"                                    . + @ @ @   ",
"                                # $ % % & * * = ",
"                                - ; > > , ' ) ) ",
"                        ! ! ! ~ { ] > > ^ /     ",
"                      ! ( _ _ : < [ } } |       ",
"                      ! 1 )     2 3 4 5 6 @ @   ",
"                    ! _ )       7     @ @ @ @ 8 ",
"          @ @ 9 0 ! a )         b c     ) ) ) ) ",
"        @ d e f g h i           b c             ",
"      @ d = ) j g k ! !         l m   @ @ @ @ n ",
"      o p )   g g q   !         r m @ e s s s t ",
"    @ u )     v v       ! ! ! w b x y z )       ",
"@ @ n )       A A q     ! ! ! ~ b B C )         ",
"@ @ D         g g q       E F G H I J e         ",
"K s L         g g q                   @ @ @ @   ",
"    @ @       M M q     ! ! ! ! N       L o o z ",
"      @ @     O O     ! P P P P Q       ) ) ) ) ",
"        @ @   R g S ! T ) ) ) ) )               ",
"          @ @ q g ! ! U                         ",
"            V W g X Y Z                         ",
"                      ! ! ! ! !                 ",
"                        ! ! ! ! `               ",
"                           . . ...              "};
