/* XPM */
static const char * next_xpm[] = {
"24 24 32 1",
" 	c None",
".	c #000000",
"+	c #6C95BB",
"@	c #A4BDD5",
"#	c #5B88B2",
"$	c #A7BFD6",
"%	c #9EB8D1",
"&	c #5080AD",
"*	c #B5C9DC",
"=	c #AFC5DA",
"-	c #B2C7DB",
";	c #B6CADD",
">	c #A2BBD3",
",	c #9CB7D1",
"'	c #080D11",
")	c #9BB6D0",
"!	c #A0BAD3",
"~	c #9AB5CF",
"{	c #97B3CE",
"]	c #5F8BB4",
"^	c #91B0CC",
"/	c #98B4CF",
"(	c #95B2CE",
"_	c #4C79A3",
":	c #507FAB",
"<	c #4A77A1",
"[	c #4C7AA5",
"}	c #2A435B",
"|	c #49749C",
"1	c #3F6588",
"2	c #456F96",
"3	c #375978",
"                        ",
"                        ",
"                        ",
"           .            ",
"           ..           ",
"           .+.          ",
"           .@#.         ",
"    ........$%&.        ",
"    .*=-;;;;>@,&'       ",
"    .)!,,,)~,!,{].      ",
"    .^%~/~),%,,!(_.     ",
"    .:<[[[[[[[[[[<}.    ",
"    .|11111111111}.     ",
"    .|1111111111}.      ",
"    .2333333111}.       ",
"    ........31}.        ",
"           .3}.         ",
"           .}.          ",
"           ..           ",
"           .            ",
"                        ",
"                        ",
"                        ",
"                        "};
