/* XPM */
static const char * person_xpm[] = {
"24 24 182 2",
"  	c None",
". 	c #000000",
"+ 	c #111110",
"@ 	c #4B4844",
"# 	c #0A0500",
"$ 	c #1D1D1D",
"% 	c #060606",
"& 	c #444444",
"* 	c #252525",
"= 	c #181817",
"- 	c #130A00",
"; 	c #4C3A29",
"> 	c #150B01",
", 	c #0E0700",
"' 	c #1D1003",
") 	c #261504",
"! 	c #361F05",
"~ 	c #1B0F01",
"{ 	c #412405",
"] 	c #C5751C",
"^ 	c #C5741D",
"/ 	c #C1731D",
"( 	c #C2731C",
"_ 	c #C8741A",
": 	c #7C450C",
"< 	c #080400",
"[ 	c #2C1804",
"} 	c #5B3107",
"| 	c #D17A1D",
"1 	c #D17B1E",
"2 	c #D37D1F",
"3 	c #D07A1D",
"4 	c #CD761A",
"5 	c #79430C",
"6 	c #2D1905",
"7 	c #311A04",
"8 	c #A95F13",
"9 	c #CC7519",
"0 	c #CC761A",
"a 	c #CC751A",
"b 	c #CB7519",
"c 	c #CA7218",
"d 	c #B66614",
"e 	c #2F1904",
"f 	c #3A1F05",
"g 	c #9B580F",
"h 	c #BE6A15",
"i 	c #83490F",
"j 	c #261402",
"k 	c #2E1803",
"l 	c #8A4C0E",
"m 	c #B56413",
"n 	c #422305",
"o 	c #472605",
"p 	c #934F0D",
"q 	c #321B03",
"r 	c #AC6011",
"s 	c #A55C10",
"t 	c #653607",
"u 	c #351C02",
"v 	c #0D1112",
"w 	c #292626",
"x 	c #593615",
"y 	c #341B04",
"z 	c #351D04",
"A 	c #341C04",
"B 	c #291704",
"C 	c #452F1A",
"D 	c #181E25",
"E 	c #090B0D",
"F 	c #25282C",
"G 	c #91999F",
"H 	c #899DB0",
"I 	c #6F7A84",
"J 	c #241E1A",
"K 	c #180E04",
"L 	c #1A120C",
"M 	c #222223",
"N 	c #646F7A",
"O 	c #455666",
"P 	c #3D4D5E",
"Q 	c #090D0F",
"R 	c #282C31",
"S 	c #A0ABB7",
"T 	c #738EAA",
"U 	c #7591AC",
"V 	c #506375",
"W 	c #899097",
"X 	c #CCCCCC",
"Y 	c #C5C6C8",
"Z 	c #8D99A5",
"` 	c #6F7F91",
" .	c #556C83",
"..	c #586E84",
"+.	c #45586B",
"@.	c #0A0D10",
"#.	c #121415",
"$.	c #90989E",
"%.	c #7C95AD",
"&.	c #6D89A5",
"*.	c #6F8BA6",
"=.	c #5C748B",
"-.	c #7C8A99",
";.	c #F2F3F4",
">.	c #E7EAED",
",.	c #A7B8C7",
"'.	c #7E95AC",
").	c #66809B",
"!.	c #5D7995",
"~.	c #4E667D",
"{.	c #374656",
"].	c #0A0C10",
"^.	c #131516",
"/.	c #96A1AD",
"(.	c #66829E",
"_.	c #67839E",
":.	c #6884A0",
"<.	c #597088",
"[.	c #607285",
"}.	c #E6E8EB",
"|.	c #C9D3DB",
"1.	c #9AACBD",
"2.	c #7990A8",
"3.	c #BBC6D2",
"4.	c #6C859E",
"5.	c #526E8B",
"6.	c #4E6883",
"7.	c #0C1015",
"8.	c #191D20",
"9.	c #8A9EB0",
"0.	c #5C7895",
"a.	c #5E7A97",
"b.	c #607C98",
"c.	c #617D99",
"d.	c #52677C",
"e.	c #CFD5DB",
"f.	c #B8C3D0",
"g.	c #68829C",
"h.	c #BBC7D1",
"i.	c #D5DBE1",
"j.	c #CAD3DB",
"k.	c #4D6A87",
"l.	c #45617E",
"m.	c #0C1016",
"n.	c #1D2227",
"o.	c #8296AA",
"p.	c #56728F",
"q.	c #587491",
"r.	c #597692",
"s.	c #5A7692",
"t.	c #405267",
"u.	c #B8C3CC",
"v.	c #A9B8C6",
"w.	c #587490",
"x.	c #4E6A87",
"y.	c #4A6684",
"z.	c #44617E",
"A.	c #3F5A78",
"B.	c #0D131A",
"C.	c #171E27",
"D.	c #748A9E",
"E.	c #4F6B88",
"F.	c #536F8C",
"G.	c #53708C",
"H.	c #3A4E63",
"I.	c #6F8498",
"J.	c #8FA0B2",
"K.	c #4E6B88",
"L.	c #4C6886",
"M.	c #486482",
"N.	c #3C5774",
"O.	c #354F69",
"P.	c #040608",
"Q.	c #182330",
"R.	c #3E5773",
"S.	c #3D5671",
"T.	c #3E5672",
"U.	c #3F5874",
"V.	c #405A74",
"W.	c #3C5670",
"X.	c #3B526C",
"Y.	c #293B50",
"                                                ",
"                                                ",
"                  . . . . .                     ",
"                + . @ @ # . .                   ",
"              $ % @ & * . . . +                 ",
"              = - ; > , ' ) ! %                 ",
"              ~ { ] ^ / ( _ : <                 ",
"              [ } | 1 2 3 4 5 6                 ",
"              7 8 9 0 a b c d e                 ",
"              f g h i j k l m n                 ",
"                o p q r s o t u                 ",
"              v w x y z A B C D E               ",
"            F G H I J K L M N O P Q             ",
"          R S T U V W X Y Z `  ...+.@.          ",
"        #.$.%.&.*.=.-.;.>.,.'.).!.~.{.].        ",
"        ^./.(._.:.<.[.}.|.1.2.3.4.5.6.7.        ",
"        8.9.0.a.b.c.d.e.f.g.h.i.j.k.l.m.        ",
"        n.o.p.q.r.s.t.u.v.w.5.x.y.z.A.B.        ",
"        C.D.E.5.F.G.H.I.J.K.L.M.l.N.O.P.        ",
"        . Q.R.S.T.U.U.V.R.R.R.W.X.X.Y..         ",
"          . . . . . . . . . . . . . .           ",
"                                                ",
"                                                ",
"                                                "};
