/* XPM */
static const char * prev_xpm[] = {
"24 24 34 1",
" 	c None",
".	c #000000",
"+	c #AEC4D9",
"@	c #C4D4E3",
"#	c #A6BED5",
"$	c #A3BCD4",
"%	c #A2BBD3",
"&	c #AAC1D7",
"*	c #A9C0D6",
"=	c #ABC2D8",
"-	c #AFC5DA",
";	c #6892B9",
">	c #9CB7D1",
",	c #A4BDD5",
"'	c #9FB9D2",
")	c #9BB6D0",
"!	c #9AB5CF",
"~	c #49759E",
"{	c #1C2D3D",
"]	c #C5D5E4",
"^	c #A0BAD3",
"/	c #9EB8D1",
"(	c #4B78A2",
"_	c #81A4C4",
":	c #7198BC",
"<	c #739ABE",
"[	c #759BBE",
"}	c #7299BD",
"|	c #3C6183",
"1	c #2A435B",
"2	c #3F6588",
"3	c #34536F",
"4	c #29425A",
"5	c #2D4760",
"                        ",
"                        ",
"                        ",
"            .           ",
"           ..           ",
"          .+.           ",
"         .@#.           ",
"        .@$%........    ",
"       .@#&*=-=++$;.    ",
"      .@>,$%')))'!~.    ",
"     {]'^//'>''^''(.    ",
"    ._:<<<<<<<<<[}|.    ",
"     .1222222222223.    ",
"      .122222222223.    ",
"       .12234444445.    ",
"        .123........    ",
"         .13.           ",
"          .3.           ",
"           ..           ",
"            .           ",
"                        ",
"                        ",
"                        ",
"                        "};
