/* XPM */
static const char * preview_xpm[] = {
"24 24 196 2",
"  	c None",
". 	c #000000",
"+ 	c #BABABA",
"@ 	c #FFFFFF",
"# 	c #F6F6F6",
"$ 	c #8D8D8D",
"% 	c #A6A6A6",
"& 	c #B5B5B5",
"* 	c #DADADA",
"= 	c #828282",
"- 	c #797979",
"; 	c #A4A4A4",
"> 	c #FDFDFD",
", 	c #787878",
"' 	c #9E9E9E",
") 	c #5C5C5C",
"! 	c #FEFEFE",
"~ 	c #FAFAFA",
"{ 	c #F2F2F2",
"] 	c #AFAFAF",
"^ 	c #47473F",
"/ 	c #0A0A09",
"( 	c #4B4B43",
"_ 	c #BBBBBB",
": 	c #F8F8F8",
"< 	c #7C7C7C",
"[ 	c #484848",
"} 	c #34342E",
"| 	c #9D9D8D",
"1 	c #CFCFB9",
"2 	c #C4C4AF",
"3 	c #8D8D7F",
"4 	c #353530",
"5 	c #9F9F9F",
"6 	c #E2E2E2",
"7 	c #CFCFCF",
"8 	c #46463F",
"9 	c #9C9C8C",
"0 	c #E2E2D0",
"a 	c #EDEDE7",
"b 	c #C0C0AC",
"c 	c #B2B29F",
"d 	c #828274",
"e 	c #4C4C44",
"f 	c #EDEDED",
"g 	c #C8C8C8",
"h 	c #747474",
"i 	c #090908",
"j 	c #D5D5BF",
"k 	c #FBFBFA",
"l 	c #C3C3AE",
"m 	c #B5B5A2",
"n 	c #A6A695",
"o 	c #9C9C8F",
"p 	c #080807",
"q 	c #E4E4E4",
"r 	c #E1E1E1",
"s 	c #9D9D9D",
"t 	c #090909",
"u 	c #CACAB5",
"v 	c #DDDDD0",
"w 	c #B7B7A4",
"x 	c #AAAA98",
"y 	c #9B9B8B",
"z 	c #AEAEA3",
"A 	c #C2C2C2",
"B 	c #87847C",
"C 	c #EAE8E3",
"D 	c #848079",
"E 	c #45443F",
"F 	c #474740",
"G 	c #929283",
"H 	c #BABAA7",
"I 	c #ADAD9B",
"J 	c #9F9F8E",
"K 	c #ACACA1",
"L 	c #CFCFCB",
"M 	c #4C4C45",
"N 	c #807D74",
"O 	c #AAA9A5",
"P 	c #BAB5AB",
"Q 	c #F3F3F3",
"R 	c #DBDBDB",
"S 	c #C9C9C9",
"T 	c #838383",
"U 	c #34342F",
"V 	c #878779",
"W 	c #A0A090",
"X 	c #AEAEA2",
"Y 	c #C3C3BE",
"Z 	c #010101",
"` 	c #C3C1BD",
" .	c #8B8B89",
"..	c #E6E5E1",
"+.	c #F4F4F3",
"@.	c #E6E6E5",
"#.	c #D1D1D1",
"$.	c #C4C4C2",
"%.	c #8B8B8A",
"&.	c #414141",
"*.	c #A09F9D",
"=.	c #404040",
"-.	c #B5B5B4",
";.	c #DFDED9",
">.	c #A4A3A1",
",.	c #6C6B6A",
"'.	c #F5F4F3",
").	c #BDBDBD",
"!.	c #A7A7A7",
"~.	c #979797",
"{.	c #B0B0AF",
"].	c #9B9B9B",
"^.	c #B6B6B6",
"/.	c #8C8C8C",
"(.	c #B3B3B3",
"_.	c #171717",
":.	c #AEACA7",
"<.	c #6A6A69",
"[.	c #999896",
"}.	c #918F87",
"|.	c #999895",
"1.	c #6B6B6A",
"2.	c #E6E4E1",
"3.	c #F0EEEC",
"4.	c #F6F5F4",
"5.	c #EAE9E9",
"6.	c #E9E9E8",
"7.	c #EBEAE9",
"8.	c #E6E5E4",
"9.	c #D4D4D4",
"0.	c #CACAC9",
"a.	c #979696",
"b.	c #9C9C9C",
"c.	c #545454",
"d.	c #50504F",
"e.	c #858482",
"f.	c #9C9B99",
"g.	c #6B6A68",
"h.	c #585858",
"i.	c #5E5C57",
"j.	c #524F4B",
"k.	c #494744",
"l.	c #4A4945",
"m.	c #4A4845",
"n.	c #484642",
"o.	c #43413D",
"p.	c #3D3B38",
"q.	c #393834",
"r.	c #393836",
"s.	c #757575",
"t.	c #4C4C4C",
"u.	c #7B7A77",
"v.	c #797771",
"w.	c #949391",
"x.	c #989694",
"y.	c #868480",
"z.	c #6E6C66",
"A.	c #706D67",
"B.	c #5C5955",
"C.	c #67645F",
"D.	c #5B5954",
"E.	c #585651",
"F.	c #5C5A55",
"G.	c #56534F",
"H.	c #4C4945",
"I.	c #4A4744",
"J.	c #484743",
"K.	c #4B4A48",
"L.	c #848484",
"M.	c #7D7D7D",
"N.	c #696861",
"O.	c #77756F",
"P.	c #7E7B77",
"Q.	c #979690",
"R.	c #96938D",
"S.	c #807E77",
"T.	c #7D7A74",
"U.	c #787770",
"V.	c #716F6A",
"W.	c #6D6B66",
"X.	c #565450",
"Y.	c #5A5954",
"Z.	c #585752",
"`.	c #605F5A",
" +	c #676660",
".+	c #72716B",
"++	c #76746F",
"@+	c #6A6963",
"#+	c #8B8880",
"$+	c #B2AFA8",
"%+	c #B6B3AD",
"&+	c #BFBDB6",
"*+	c #BDBBB4",
"=+	c #B0AEA6",
"-+	c #ABA8A2",
";+	c #9C9991",
"                                                ",
"            . . . . . . . . . . . .             ",
"          . + @ @ @ @ @ @ @ @ @ @ + .           ",
"          . @ @ @ @ @ @ @ @ @ @ @ # .           ",
"          . @ $ % & @ * @ @ @ @ @ # .           ",
"          . @ @ @ @ @ @ @ @ @ @ @ # .           ",
"          . @ = - ; > , ' * + ) @ # .           ",
"          . ! ~ { ] ^ / / ( _ @ @ # .           ",
"          . : < [ } | 1 2 3 4 5 @ # .           ",
"          . 6 7 8 9 0 a b c d e # f .           ",
"        . . g h i j k l m n o p q r . .         ",
"      . @ . % s t u v w x y z / g A . B .       ",
"    . @ C D E . F G H I J K L M . N B O P .     ",
"  . @ @ Q { R S T U V W X Y Z Z @ @ @ @ @ C .   ",
"  . `  ...+.@.#.$.%.( / / &.*.=.Z -.C 5 ;.P .   ",
"  . >.,.'.).7 !.& ~.{.].^./.(.' =._.:.<.[.}..   ",
"  . |.1.2.3.4.+.f 5.6.7.8.9.0.a.b.c.Z d.e.}..   ",
"  . f.g.h.i.j.k.l.m.m.m.n.o.p.q.r.s.t.t.u.v..   ",
"  . w.x.y.z.A.B.C.D.E.D.F.G.H.I.J.K.L.M.N.O..   ",
"  . P.Q.R.}.S.T.U.O.V.O.V.W.X.Y.Z.`. +.+++@+.   ",
"    . . . . . . . . . . . . . . . . . . . .     ",
"    . #+$+%+&+&+&+&+&+*+=+$+-+=+;+;+;+N N .     ",
"      . . . . . . . . . . . . . . . . . .       ",
"                                                "};
