/* XPM */
static const char * profiles_xpm[] = {
"24 24 21 1",
" 	c None",
".	c #889088",
"+	c #BFBFBF",
"@	c #586058",
"#	c #505050",
"$	c #707070",
"%	c #FFFFFF",
"&	c #808080",
"*	c #606060",
"=	c #EFEFEF",
"-	c #CFCFCF",
";	c #9F9F9F",
">	c #000000",
",	c #303030",
"'	c #101010",
")	c #DFDFDF",
"!	c #202020",
"~	c #AFAFAF",
"{	c #404040",
"]	c #8F8F8F",
"^	c #586858",
"   .++++++++++++++++@   ",
"   +#$%%%%%%%%%%%%%%&   ",
"   +#*%%+%%%%%=-%%%%&   ",
"   +;&%;>*%%%=,'-%%%&   ",
"   +=%)>>>;%%*>>!%%%&   ",
"   ~,*){*#~%%&*##%%%&   ",
"   ;,#%%+=%%%%)-%%%%&   ",
"   +)=%%+%%%%%=-%%%%&   ",
"   +%%%;>*%%%=,'-%%%&   ",
"   +%%)>>>;=%*>>!%%%&   ",
"   +%%){*#;,*&*##%%%&   ",
"   +%%%%+={>>&)-%%%%&   ",
"   +%%%%%%',,#%%%%%%&   ",
"   +%%=&*&-~-~&*]%%%&   ",
"   +%%->>>]%%#>>'%%%&   ",
"   +%%%*>,=%%-'>;%%%&   ",
"   +%%%%&=%%%%-;%%)=&   ",
"   +%%%%+=%%%%)-%),#&   ",
"   +%%){*#~%%&*##=,*&   ",
"   +%%)>>>;%%*>>!%=%&   ",
"   +%%%;>*%%%=,'-%*+&   ",
"   +%%%%+%%%%%=-%%{$&   ",
"   +%%%%%%%%%%%%%%#$&   ",
"   .++++++++++++++++^   "};
