/* XPM */
static const char * table_xpm[] = {
"24 24 26 1",
" 	c None",
".	c #000000",
"+	c #D3D3D3",
"@	c #ABABAB",
"#	c #A6A6A6",
"$	c #C8C8C8",
"%	c #A2A2A2",
"&	c #868686",
"*	c #F2F2F2",
"=	c #C4C4C4",
"-	c #C9C9C9",
";	c #A3A3A3",
">	c #C7C7C7",
",	c #A1A1A1",
"'	c #F1F1F1",
")	c #C3C3C3",
"!	c #C5C5C5",
"~	c #ACACAC",
"{	c #ADADAD",
"]	c #AAAAAA",
"^	c #8C8C8C",
"/	c #CCCCCC",
"(	c #D1D1D1",
"_	c #D2D2D2",
":	c #CECECE",
"<	c #B4B4B4",
"                        ",
" .....................  ",
" .++++@++++@++++@+++#.  ",
" .+$$$%$$$$%$$$$%$$$#.  ",
" .+$$$%$$$$%$$$$%$$$#.  ",
" .+$$$%$$$$%$$$$%$$$#.  ",
" .@%%%%%%%%%%%%%%%%%&.  ",
" .+$$$%****=********-.  ",
" .+$$$%****=********-.  ",
" .+$$$%****=********-.  ",
" .+$$$%****=********-.  ",
" .@%%%%=============;.  ",
" .+$$$%*********=***-.  ",
" .+$$$%*********=***-.  ",
" .+$$$%*********=***-.  ",
" .+$$$%*********=***-.  ",
" .@%%%%=============;.  ",
" .+>>>,'''')'''')'''>.  ",
" .+>>>,'''')'''')'''>.  ",
" .+>>>,'''')'''')'''-.  ",
" .!~{]^/(_:]/(_:]///<.  ",
" .....................  ",
"                        ",
"                        "};
