/* XPM */
static const char * tobegin_xpm[] = {
"24 24 51 1",
" 	c None",
".	c #000000",
"+	c #F4F7F9",
"@	c #BED0E1",
"#	c #E3EBF2",
"$	c #9EB8D1",
"%	c #C1D2E2",
"&	c #E0E9F1",
"*	c #B1C6DA",
"=	c #E2EAF1",
"-	c #AEC4D9",
";	c #A2BBD3",
">	c #ABC2D8",
",	c #AAC1D7",
"'	c #A9C0D6",
")	c #B5C9DC",
"!	c #BCCEDF",
"~	c #D4E0EB",
"{	c #D3DFEA",
"]	c #C0D1E1",
"^	c #6892B9",
"/	c #AFC5DA",
"(	c #A4BDD5",
"_	c #A3BCD4",
":	c #9FB9D2",
"<	c #9BB6D0",
"[	c #9AB5CF",
"}	c #49759E",
"|	c #DEE7EF",
"1	c #1C2D3D",
"2	c #DAE4ED",
"3	c #A6BED5",
"4	c #A0BAD3",
"5	c #9CB7D1",
"6	c #4B78A2",
"7	c #89AAC8",
"8	c #4C7AA5",
"9	c #B2C7DB",
"0	c #7BA0C2",
"a	c #739ABE",
"b	c #759BBE",
"c	c #7299BD",
"d	c #3C6183",
"e	c #769CBF",
"f	c #3F6588",
"g	c #2A435B",
"h	c #34536F",
"i	c #29425A",
"j	c #2D4760",
"k	c #648FB7",
"l	c #314F6A",
"                        ",
"                        ",
"                        ",
"  ....        .         ",
"  .+@.       ..         ",
"  .#$.      .%.         ",
"  .#$.     .&*.         ",
"  .#$.    .=-;........  ",
"  .#$.   .=>,'>)!~{]^.  ",
"  .#$.  .=/(_;:<<<:[}.  ",
"  .|$. 1234$$:5::4::6.  ",
"  .78..90aaaaaaaaabcd.  ",
"  .ef. .gfffffffffffh.  ",
"  .ef.  .gffffffffffh.  ",
"  .ef.   .gffhiiiiiij.  ",
"  .ef.    .gfh........  ",
"  .ef.     .gh.         ",
"  .ef.      .h.         ",
"  .kl.       ..         ",
"  ....        .         ",
"                        ",
"                        ",
"                        ",
"                        "};
