/* XPM */
static const char * toend_xpm[] = {
"24 24 43 1",
" 	c None",
".	c #000000",
"+	c #F4F7F9",
"@	c #BED0E1",
"#	c #AEC4D9",
"$	c #E3EBF2",
"%	c #9EB8D1",
"&	c #E7EEF4",
"*	c #5B88B2",
"=	c #DCE6EF",
"-	c #5080AD",
";	c #EDF2F6",
">	c #DFE8F0",
",	c #DBE5EE",
"'	c #D1DEEA",
")	c #BACDDF",
"!	c #A4BDD5",
"~	c #9CB7D1",
"{	c #080D11",
"]	c #D4E0EB",
"^	c #A0BAD3",
"/	c #9BB6D0",
"(	c #9AB5CF",
"_	c #97B3CE",
":	c #5F8BB4",
"<	c #CCDAE7",
"[	c #98B4CF",
"}	c #95B2CE",
"|	c #4C79A3",
"1	c #DEE7EF",
"2	c #8DADCA",
"3	c #4A77A1",
"4	c #4C7AA5",
"5	c #2A435B",
"6	c #89AAC8",
"7	c #84A6C5",
"8	c #3F6588",
"9	c #769CBF",
"0	c #82A5C5",
"a	c #5382AE",
"b	c #375978",
"c	c #648FB7",
"d	c #314F6A",
"                        ",
"                        ",
"                        ",
"        .        ....   ",
"        ..       .+@.   ",
"        .#.      .$%.   ",
"        .&*.     .$%.   ",
" ........=%-.    .$%.   ",
" .+;&>,'))!~-{   .$%.   ",
" .]^~~~/(~^~_:.  .$%.   ",
" .<%([(/~%~~^}|. .1%.   ",
" .23444444444435..64.   ",
" .7888888888885. .98.   ",
" .088888888885.  .98.   ",
" .abbbbbb8885.   .98.   ",
" ........b85.    .98.   ",
"        .b5.     .98.   ",
"        .5.      .98.   ",
"        ..       .cd.   ",
"        .        ....   ",
"                        ",
"                        ",
"                        ",
"                        "};
