/* XPM */
static const char * tree_xpm[] = {
"24 24 73 1",
" 	c None",
".	c #FF0000",
"+	c #F42020",
"@	c #EA4040",
"#	c #CAA0A0",
"$	c #F81515",
"%	c #D28B8B",
"&	c #C0C0C0",
"*	c #00FF00",
"=	c #20BF00",
"-	c #800000",
";	c #DF0000",
">	c #EF3030",
",	c #20F420",
"'	c #80D580",
")	c #80A060",
"!	c #A04040",
"~	c #FA1010",
"{	c #A0CAA0",
"]	c #805151",
"^	c #807979",
"/	c #800808",
"(	c #D18C8C",
"_	c #80470E",
":	c #008E1C",
"<	c #60E060",
"[	c #806060",
"}	c #F12B2B",
"|	c #789595",
"1	c #00FFFF",
"2	c #15EA15",
"3	c #4BE64B",
"4	c #4DE6E6",
"5	c #699769",
"6	c #801A1A",
"7	c #806B6B",
"8	c #E06060",
"9	c #808080",
"0	c #803131",
"a	c #E35555",
"b	c #C9A5A5",
"c	c #D58080",
"d	c #00B871",
"e	c #309F00",
"f	c #CF0000",
"g	c #F61B1B",
"h	c #CE9595",
"i	c #00D5AA",
"j	c #D09090",
"k	c #7AD77A",
"l	c #95CE95",
"m	c #9CC095",
"n	c #B29595",
"o	c #C79595",
"p	c #FC0B0B",
"q	c #C7ABAB",
"r	c #00F1E3",
"s	c #13F913",
"t	c #009C39",
"u	c #2BF12B",
"v	c #75D875",
"w	c #40BFBF",
"x	c #4DB34D",
"y	c #30EF30",
"z	c #90D090",
"A	c #DC6B6B",
"B	c #6EB5B5",
"C	c #6BDC6B",
"D	c #35EE35",
"E	c #40EA40",
"F	c #54E354",
"G	c #ABC7AB",
"H	c #B5C4B5",
"                        ",
"                   .... ",
"                  .+@@@#",
"                  $%&&&&",
"            ***=-;>&    ",
"           *,'')-!~@    ",
"           *{&  ]^ .... ",
"          *'&   /  ....(",
"     .._:*<&    -[  &&&&",
"    .+}|123     -[      ",
"   .+#&415**    67 ....8",
"   $%& 119 *    07.}aaab",
"  .c&  dd   ***e-fgh&   ",
"..8&   ii9  ***=-;>&    ",
"..j    119   klmnop}    ",
"qa~    119         .... ",
"  ..   rr9  ****s   ~$$h",
"   ..  tt  *uuuuv   &&&&",
"    .. w1x*y&&&&&       ",
"     ..91**z            ",
"      AB1CDE            ",
"           *****        ",
"            ****F       ",
"             GGGH       "};
