/* XPM */
static const char * zoomfit_xpm[] = {
"24 24 172 2",
"  	c None",
". 	c #343434",
"+ 	c #2D2D2D",
"@ 	c #292929",
"# 	c #262626",
"$ 	c #2E2E2E",
"% 	c #303030",
"& 	c #737373",
"* 	c #A1A1A1",
"= 	c #B4B4B4",
"- 	c #B2B2B2",
"; 	c #9D9D9D",
"> 	c #676767",
", 	c #202020",
"' 	c #1C1C1C",
") 	c #272727",
"! 	c #616161",
"~ 	c #CACACA",
"{ 	c #CFCFCF",
"] 	c #D0D0D0",
"^ 	c #CECECE",
"/ 	c #C9C9C9",
"( 	c #C1C1C1",
"_ 	c #A7A7A7",
": 	c #4C4C4C",
"< 	c #131313",
"[ 	c #222222",
"} 	c #757575",
"| 	c #D3D3D3",
"1 	c #DBDBDB",
"2 	c #E7E7E7",
"3 	c #EFEFEF",
"4 	c #F3F3F3",
"5 	c #F1F1F1",
"6 	c #E5E5E5",
"7 	c #D2D2D2",
"8 	c #BCBCBC",
"9 	c #5E5E5E",
"0 	c #101010",
"a 	c #212121",
"b 	c #5B5B5B",
"c 	c #CCCCCC",
"d 	c #D7D7D7",
"e 	c #F5F5F5",
"f 	c #FAFAFA",
"g 	c #FBFBFB",
"h 	c #F8F8F8",
"i 	c #F0F0F0",
"j 	c #E1E1E1",
"k 	c #C2C2C2",
"l 	c #434343",
"m 	c #0F0F0F",
"n 	c #1F1F1F",
"o 	c #B9B9B9",
"p 	c #D6D6D6",
"q 	c #F9F9F9",
"r 	c #FDFDFD",
"s 	c #FCFCFC",
"t 	c #F2F2F2",
"u 	c #ECECEC",
"v 	c #E4E4E4",
"w 	c #ABABAB",
"x 	c #0E0E0E",
"y 	c #171717",
"z 	c #5D5D5D",
"A 	c #EBEBEB",
"B 	c #FEFEFE",
"C 	c #EEEEEE",
"D 	c #E6E6E6",
"E 	c #575757",
"F 	c #090909",
"G 	c #111111",
"H 	c #A8A8A8",
"I 	c #D8D8D8",
"J 	c #91A0AF",
"K 	c #47607B",
"L 	c #E3E3E3",
"M 	c #49637D",
"N 	c #92A0AF",
"O 	c #DCDCDC",
"P 	c #9B9B9B",
"Q 	c #060606",
"R 	c #000000",
"S 	c #141414",
"T 	c #C5C5C5",
"U 	c #DFDFDF",
"V 	c #C7CDD3",
"W 	c #314E6C",
"X 	c #6E8296",
"Y 	c #F7F7F7",
"Z 	c #D9D9D9",
"` 	c #93A2B1",
" .	c #BFC5CB",
"..	c #BFBFBF",
"+.	c #5C7289",
"@.	c #65788D",
"#.	c #BABABA",
"$.	c #050505",
"%.	c #2B2B2B",
"&.	c #A4A4A4",
"*.	c #E0E0E0",
"=.	c #C0C6CC",
"-.	c #7D8EA0",
";.	c #F6F6F6",
">.	c #8F9DAC",
",.	c #B7BDC3",
"'.	c #D1D1D1",
").	c #939393",
"!.	c #020202",
"~.	c #9EA8B4",
"{.	c #48617C",
"].	c #EDEDED",
"^.	c #405A76",
"/.	c #77899B",
"(.	c #D4D4D4",
"_.	c #0A0A0A",
":.	c #B3B3B3",
"<.	c #DBDBDA",
"[.	c #D5D5D5",
"}.	c #C4C4C4",
"|.	c #C6C6C6",
"1.	c #CBCBCB",
"2.	c #DEDEDD",
"3.	c #3E3E3E",
"4.	c #3A3A3A",
"5.	c #CBCBCA",
"6.	c #D1D1D0",
"7.	c #D6D5D5",
"8.	c #C2C2C1",
"9.	c #BDBDBD",
"0.	c #BEBEBE",
"a.	c #080808",
"b.	c #505050",
"c.	c #C0C0C0",
"d.	c #C8C8C7",
"e.	c #C7C7C7",
"f.	c #C8C8C8",
"g.	c #BABAB9",
"h.	c #A6A6A6",
"i.	c #B5B5B5",
"j.	c #454545",
"k.	c #A3A2A2",
"l.	c #979797",
"m.	c #B9B9B8",
"n.	c #BBBBBA",
"o.	c #B7B7B7",
"p.	c #AAAAA9",
"q.	c #7B7B7B",
"r.	c #2A2A2A",
"s.	c #FBFBFA",
"t.	c #E9E9E8",
"u.	c #B8B8B8",
"v.	c #393939",
"w.	c #030303",
"x.	c #404040",
"y.	c #787878",
"z.	c #747473",
"A.	c #383837",
"B.	c #FBFAFA",
"C.	c #E8E7E7",
"D.	c #E8E8E7",
"E.	c #E7E6E6",
"F.	c #CACAC9",
"G.	c #9F9F9F",
"H.	c #525151",
"I.	c #1D1D1D",
"J.	c #181818",
"K.	c #E8E8E8",
"L.	c #686868",
"M.	c #797979",
"N.	c #BBBBBB",
"O.	c #A0A0A0",
"              . + @ # # #                       ",
"          $ % & * = - ; > , '                   ",
"        ) ! = ~ { ] ^ / ( _ : <                 ",
"      [ } ~ | 1 2 3 4 5 6 7 8 9 0               ",
"    a b c d 6 e f g f h e i j k l m             ",
"    n o p 2 q g r r s g h t u v w x             ",
"  y z = ( 7 p A B B r s q e C D 1 E F           ",
"  G H I C e J K L r r g M N C D O P Q           ",
"R S T U V W W X Y Z g f ` W W  .1 ..Q           ",
"R G T +.W W W W W W W W W W W W @.#.$.          ",
"R %.&.*.=.W W -.;.5 6 ] >.W W ,.'.).!.          ",
"R ! 9 I *.6 ~.{.3 ].2 *.^./.1 (.~ : R           ",
"R - _.:.d <.[.}.T T |.k ..~ | 1.* !.            ",
"R 2.3.4.5.6.7 7.[.'.{ |.8.- |.9.$ R             ",
"R g 0.a.b.c.T d.e.f.T ( g.h.i.j.R               ",
"R g ^ k.Q % l.m.n.o o.i.p.q.r.R R R             ",
"R s.t./ u.v.w.x.y.l.l.z.A.R R   R R R R         ",
"R B.C.D.E.F.G.H.I.w.w.J.R         , , R R       ",
"R r K.D D D D ~ ~ ~ / h.R         R L.. R R     ",
"R r 2 2 D D D 6 6 v v 9.R           R M.4.R R   ",
"R r D 6 6 6 v v L L L N.R             R L.n R   ",
"R k 9.9.9.8 8 N.N.N.N.O.R               R R     ",
"  R R R R R R R R R R R                         ",
"                                                "};
