/* XPM */
static char * options_xpm[] = {
"33 30 10 1",
" 	c Black",
".	c Gray100",
"X	c #c0c0c0",
"o	c #808080",
"O	c Yellow",
"+	c Magenta",
"@	c #008000",
"#	c #800080",
"$	c Red",
"%	c Cyan",
" ............................... ",
" .XXXXXXXXXXXXXXXXXXXXXXXXXXXXXo ",
" .XXXXXXXXXXXXXXXXXXXXXXXXXXXXXo ",
" .XXXXXXXXXXXXXXXXXXXXXXXXXXXXXo ",
" .XXXXXXXXXXXXXXXXXXXXXXXXXXXXXo ",
" .XXXXXXXXXXXXXXXXXXXXXXXXXXXXXo ",
" .XXXXXXXXXXX      XXXXXXXXXXXXo ",
" .XXXXXXXXX  .O.O.O  XXXXXXXXXXo ",
" .XXXXXXX  O.X  XO.O. XXXXXXXXXo ",
" .XXXXXX .O.O ++ .O.O. XXXXXXXXo ",
" .XXXXX .O.O. ++ OX  X. XXXXXXXo ",
" .XXXXX OX  XX  X. @@ O. XXXXXXo ",
" .XXXXX . ## O.O.O @@ .O. XXXXXo ",
" .XXXXX O ## .O.O.X  XO.O  XXXXo ",
" .XXXXX .X  XO.O.O.O.O.O.   XXXo ",
" .XXXXX O.O.O.O.O.O.X  XO   XXXo ",
" .XXXXXX   O.O.O.O.O $$ .   XXXo ",
" .XXXXXXX   O.O.O.O. $$ O   XXXo ",
" .XXXXXXXX   O.X  XOX  X.   XXXo ",
" .XXXXXXXXXX .O %% .O.O.    XXXo ",
" .XXXXXXXXXX O. %% O.O.O    XXXo ",
" .XXXXXXXXX O.OX  X.O.O    XXXXo ",
" .XXXXXXXXX .O.O.O.O.O     XXXXo ",
" .XXXXXXXXXX .O.O.O.      XXXXXo ",
" .XXXXXXXXXXX            XXXXXXo ",
" .XXXXXXXXXXXX         XXXXXXXXo ",
" .XXXXXXXXXXXXX       XXXXXXXXXo ",
" .XXXXXXXXXXXXXXXXXXXXXXXXXXXXXo ",
" .oooooooooooooooooooooooooooooo ",
"                                 "};
