/* XPM */
static char * zoomout_xpm[] = {
"33 30 5 1",
" 	c Black",
".	c Gray100",
"X	c #c0c0c0",
"o	c #808080",
"O	c #000080",
" ............................... ",
" .XXXXXXXXXXXXXXXXXXXXXXXXXXXXXo ",
" .XXXXXXXXXXXXXXXXXXXXXXXXXXXXXo ",
" .XXXXXXXXXXXXXXXXXXXXXXXXXXXXXo ",
" .XXXXXXXXXo     oXXXXXXXXXXXXXo ",
" .XXXXXXXo  XXXXX  oXXXXXXXXXXXo ",
" .XXXXXXo XXX..XXXX oXXXXXXXXXXo ",
" .XXXXXo XX..XXXXXXX oXXXXXXXXXo ",
" .XXXXX XX.XXXXXXXXXX XXXXXXXXXo ",
" .XXXXo X.XXXXXXXXXXX oXXXXXXXXo ",
" .XXXX XX.XXXXXXXXXXXX XXXXXXXXo ",
" .XXXX X.X         XXX XXXXXXXXo ",
" .XXXX X.X         XXX XXXXXXXXo ",
" .XXXX XXX         XXX XXXXXXXXo ",
" .XXXX XXXXXXXXXXXX.XX XXXXXXXXo ",
" .XXXXo XXXXXXXXXXX.X oXXXXXXXXo ",
" .XXXXX XXXXXXXXXX.XX XXXXXXXXXo ",
" .XXXXXo XXXXXXX..XX  XXXXXXXXXo ",
" .XXXXXXo XXXXXXXXX OOOXXXXXXXXo ",
" .XXXXXXXo  XXXXX   OOOOXXXXXXXo ",
" .XXXXXXXXXo     oXXOOOOOXXXXXXo ",
" .XXXXXXXXXXXXXXXXXXXOOOOOXXXXXo ",
" .XXXXXXXXXXXXXXXXXXXXOOOOOXXXXo ",
" .XXXXXXXXXXXXXXXXXXXXXOOOOOXXXo ",
" .XXXXXXXXXXXXXXXXXXXXXXOOOOOXXo ",
" .XXXXXXXXXXXXXXXXXXXXXXXOOOOXXo ",
" .XXXXXXXXXXXXXXXXXXXXXXXXOOOXXo ",
" .XXXXXXXXXXXXXXXXXXXXXXXXXXXXXo ",
" .oooooooooooooooooooooooooooooo ",
"                                 "};
