/* XPM */
static char * ledgreen_xpm[] = {
"15 15 99 2",
"  	c None",
". 	c #012B00",
"+ 	c #013402",
"@ 	c #013C04",
"# 	c #012500",
"$ 	c #015209",
"% 	c #015609",
"& 	c #016E0E",
"* 	c #01700E",
"= 	c #01660B",
"- 	c #01620D",
"; 	c #55983D",
"> 	c #014A0F",
", 	c #012100",
"' 	c #018414",
") 	c #018C15",
"! 	c #019817",
"~ 	c #018614",
"{ 	c #01680D",
"] 	c #014C06",
"^ 	c #01720F",
"/ 	c #018E15",
"( 	c #01A018",
"_ 	c #01BC20",
": 	c #17B21E",
"< 	c #25AC1F",
"[ 	c #29A829",
"} 	c #019E17",
"| 	c #013602",
"1 	c #01660D",
"2 	c #018814",
"3 	c #01A71D",
"4 	c #01BE20",
"5 	c #1CBB20",
"6 	c #57DE15",
"7 	c #9EF330",
"8 	c #4CCF18",
"9 	c #15A61B",
"0 	c #019216",
"a 	c #01640D",
"b 	c #012801",
"c 	c #014606",
"d 	c #01981A",
"e 	c #01B41F",
"f 	c #02CB23",
"g 	c #27CB1A",
"h 	c #87F116",
"i 	c #FFFFFF",
"j 	c #A6F534",
"k 	c #29B01F",
"l 	c #019C17",
"m 	c #013E04",
"n 	c #01740F",
"o 	c #019E1B",
"p 	c #01BA20",
"q 	c #02CD23",
"r 	c #19CC1D",
"s 	c #53E712",
"t 	c #A9F645",
"u 	c #77EF2E",
"v 	c #1AB51E",
"w 	c #014A06",
"x 	c #017C13",
"y 	c #01A01B",
"z 	c #01C822",
"A 	c #02DB26",
"B 	c #19DA19",
"C 	c #2DD617",
"D 	c #30D619",
"E 	c #01C622",
"F 	c #01780F",
"G 	c #014608",
"H 	c #02B11F",
"I 	c #01C221",
"J 	c #2DE436",
"K 	c #02CF23",
"L 	c #02D324",
"M 	c #02AD1E",
"N 	c #012601",
"O 	c #015A0C",
"P 	c #017E13",
"Q 	c #01C021",
"R 	c #02AF1E",
"S 	c #019C1B",
"T 	c #015409",
"U 	c #01A61C",
"V 	c #02A91D",
"W 	c #019A17",
"X 	c #016A0E",
"Y 	c #014E08",
"Z 	c #017812",
"` 	c #012700",
" .	c #014406",
"..	c #014A08",
"+.	c #015809",
"@.	c #01600C",
"#.	c #012C01",
"$.	c #013804",
"%.	c #014004",
"          . + @ + .           ",
"      # $ % & * = - ; >       ",
"    , $ * ' ) ! ! ~ { ] ,     ",
"    $ ^ / ( _ : < [ } * ]     ",
"  | 1 2 3 4 5 6 7 8 9 0 a b   ",
"  c * d e f g h i j k l & m   ",
"  $ n o p q r s t u v } ^ w   ",
"  $ x y p z A B C D E d F w   ",
"  G ^ d H I J K L E M 0 * m   ",
"  N O P y H Q Q p R S ' T N   ",
"    c * ) y U V V W 2 X Y     ",
"    # c ^ Z ) / ' P - Y #     ",
"      `  ...+.@.+.T c `       ",
"          #.$.%.$.#.          ",
"                              "};
