#define efg_width 32
#define efg_height 32
static char efg_bits[] = {
 0x00,0x00,0x00,0x00,0xf0,0xf9,0x7c,0x00,0x10,0x08,0x04,0x00,0x10,0x08,0x04,
 0x00,0xf0,0xf9,0x74,0x00,0x10,0x08,0x54,0x00,0x13,0x08,0x44,0x7c,0xf3,0x09,
 0x7c,0x56,0x00,0x00,0x00,0x03,0x00,0x00,0xea,0x00,0x00,0x00,0xea,0x01,0x00,
 0x80,0x60,0x03,0x00,0x80,0xc0,0x7e,0x00,0x20,0x60,0x68,0x80,0x2f,0x60,0x00,
 0xc0,0x2a,0xe0,0x00,0x60,0x54,0x60,0x7c,0x10,0x88,0x40,0x36,0x18,0x14,0x61,
 0x03,0x0c,0x0c,0xea,0x01,0x03,0x08,0xea,0x00,0x07,0x14,0x00,0x03,0x0c,0x08,
 0x00,0x7e,0x18,0x14,0x35,0x54,0x20,0x0c,0x15,0x00,0x60,0x48,0x00,0x00,0x40,
 0x2b,0x00,0x00,0x80,0x6b,0x00,0x00,0x00,0x84,0x00,0x00,0x00,0x00,0x2d,0x00,
 0x00,0x00,0x15,0x00,0x00,0x00,0x00,0x00};
