/* XPM */
static char *pxi_xpm[] = {
"32 32 6 1",
" 	c Cyan",
".	c Black",
"X	c Gray100",
"o	c Blue",
"O	c #c0c0c0",
"+	c Magenta",
"                                ",
"                                ",
"                                ",
"                                ",
"                                ",
"                                ",
"                                ",
" .XXXXXXXXXXXXXXXXXXXXXXXXXXXX. ",
" .XXoXoXXXXoXXXXoXXXXoXXXXoXXX.O",
" .XXXXoXXXXoXXXXoXXXXoXXXXoXXX.O",
" .XXoXoXXXXoXXXXoXXXXoXXXXoXXX.O",
" .XXXXoXXXXoXXXXoXXXXoXXXXoXXX.O",
" .XXoXoXXXXoXXXXoXXXXoXXXXoXXX.O",
" .XXXXoXXXXoXXXXoXXXXoXXXXoXXX.O",
" .XXoXoXXXXoXXXXoXXXXoXXXXoXXX.O",
" .XXXXoXXXXoXXXXoX+XXoXXXXoXXX.O",
" .XXoXoXXXXoXXXXo+X+XoXXXXoXXX.O",
" .XXXXoXXXXoXXXX+XX+XoXXXXoXXX.O",
" .XXoXoXXXX+XXX+oXXX+oXXXXoXXX.O",
" .XXXXoXXX+o+X+XoXXX+oXXXXoX+X.O",
" .XXoXoXXX+oX+XXoXXXX+XXXXo+XX.O",
" .XXXXoXX+XoXXXXoXXXX+XXXX+XXX.O",
" .XXoXoXX+XoXXXXoXXXXo+XX+oXXX.O",
" .XXXXoX+XXoXXXXoXXXXo+X+XoXXX.O",
" .XXoXoX+XXoXXXXoXXXXoX+XXoXXX.O",
" .XXXXo+XXXoXXXXoXXXXoXXXXoXXX.O",
" .XXoX+ooooooooooooooooooooooX.O",
" .XXXXXXXXXXXXXXXXXXXXXXXXXXXX.O",
" ..............................O",
"  OOOOOOOOOOOOOOOOOOOOOOOOOOOOOO",
"                                ",
"                                "};
