/* XPM */
static const char *spell_xpm[]={
"16 16 7 1",
". c None",
"# c #000000",
"b c #000080",
"c c #008080",
"e c #808080",
"a c #d9d9d9",
"d c #ffffff",
".##############.",
"##abbbbbbbbbbbb#",
"#abbbbbbbbbbbbb#",
"#abcdcbddabadab#",
"#abdbdbdbdbdbdb#",
"#abdddbdddbdbbb#",
"#abdbdbdbdbdbdb#",
"#abdbdbddabadab#",
"#abbbbbbbbbbbbb#",
"#abbbbbbbbbbbbb#",
"#abbbbbbbbbbbbb#",
"#a##############",
"##babababababab#",
"#aaeaeaeaeaeaea#",
"#eaaeaeaeaeaeae#",
".###############"};
