/* XPM */
static char * delete_xpm[] = {
"32 30 5 1",
" 	c Gray100",
".	c Black",
"X	c #c0c0c0",
"o	c #808080",
"O	c #800080",
"                               .",
" XXXXXXXXXXXXXXXXXXXXXXXXXXXXXo.",
" XXXXXXXXXXXXXXXXXXXXXXXXXXXXXo.",
" XXXXXXXXXXXXXXXXXXXXXXXXXXXXXo.",
" XXX.........XXXXXXXXXXXXXXXXXo.",
" XXX.       .XXXXXXXXXXXXXXXXXo.",
" XXX.       .XXXXXXXXXXXXXXXXXo.",
" XXX.       .X.XXXXXXXXXXXXXXXo.",
" XXX.       .XX.XX.XXXXXXXXXXXo.",
" XXX.       .XXX...XXXXXXXXXXXo.",
" XXX.........XXX...XXXXXXXXXXXo.",
" XXXXXXXXXXXXXX....XXXXXXXXXXXo.",
" XXXXXXXXXXXXXXXXXX.........XXo.",
" XXXXXXXXXXXXXXXXXX.OOOOOOO.XXo.",
" XXXXX......XXXXXXX.OOOOOOO.XXo.",
" XXXXX......XXXXXXX.OOOOOOO.XXo.",
" XXXXXXXXXXXXXXXXXX.OOOOOOO.XXo.",
" XXXXXXXXXXXXXXXXXX.OOOOOOO.XXo.",
" XXXXXXXXXXXXXXXXXX.........XXo.",
" XXXXXXXXXXXXXX....XXXXXXXXXXXo.",
" XXX.........XXX...XXXXXXXXXXXo.",
" XXX.       .XXX...XXXXXXXXXXXo.",
" XXX.       .XX.XX.XXXXXXXXXXXo.",
" XXX.       .X.XXXXXXXXXXXXXXXo.",
" XXX.       .XXXXXXXXXXXXXXXXXo.",
" XXX.       .XXXXXXXXXXXXXXXXXo.",
" XXX.........XXXXXXXXXXXXXXXXXo.",
" XXXXXXXXXXXXXXXXXXXXXXXXXXXXXo.",
" oooooooooooooooooooooooooooooo.",
"................................"};
