/* XPM */
static char * job\gambit\bitmaps\nfgi_xpm[] = {
"32 32 9 1",
" 	c Gray100",
".	c Black",
"X	c Red",
"o	c #c0c0c0",
"O	c Green",
"+	c #800000",
"@	c #808080",
"#	c #008000",
"$	c Cyan",
"                                ",
"    .....  .....  .....         ",
"    .      .      .             ",
"    .      .      .             ",
"    .....  .....  . ...         ",
"    .      .      . . .         ",
"..  .      .      .   .   XXXXX ",
"..  .....  .      .....  XXXXXXo",
"                        XXoooooo",
"                 OOOO++XXoo     ",
"                OOOOO++XXo      ",
"               OOoooo++@XX      ",
"              OOoo    @@ XXXXXX ",
"             OOoo    ++   XXXXXo",
"       XXX##OOoo     ++@   ooooo",
"      XXXX$$OOo      ++@        ",
"     XXooo$$@OO      ++@  XXXXX ",
"    XXoo  $$@ OO      @@ XXXXXXo",
"   XXoo   $$@  OO    ++ XXoooooo",
"  XXoo    ##    OOOOO++XXoo     ",
"XXXoo     $$@    OOOO++XXo      ",
"XXXo      $$@     ooooooXX      ",
"ooXX      $$@            XXXXXX ",
"   XX     $$@   OOOOOO    XXXXXo",
"    XX    ##   OOOOOOOo    ooooo",
"     XX   $$@ OOooooooo         ",
"      XXXX$$OOOoo               ",
"       XXX$$OOOo                ",
"        oo$$ooOO                ",
"               OOOOOOO          ",
"                OOOOOOo         ",
"                 oooooo         "};
