/* XPM */
static char * open_xpm[] = {
"33 31 6 1",
" 	c #c0c0c0",
".	c Gray100",
"X	c #808080",
"o	c Black",
"O	c Yellow",
"+	c #bfbf00",
"                                 ",
"  ...............................",
"  .                             X",
"  .                             X",
"  .                             X",
"  .                             X",
"  .                             X",
"  .                 oooo    o   X",
"  .                o    oo  o   X",
"  .               o       ooo   X",
"  .                       ooo   X",
"  .     ooooo           ooooo   X",
"  .    o.O.O.o                  X",
"  .   o.O.O.O.ooooooooo         X",
"  .   oO.O.O.O.O.O.O.Oo         X",
"  .   o.O.O.O.O.O.O.O.o         X",
"  .   oO.O.O.O.O.O.O.Oo         X",
"  .   o.O.O.O.O.O.O.O.o         X",
"  .   oO.O.O.Ooooooooooooooooo  X",
"  .   o.O.O.Oo++++++++++++++o   X",
"  .   oO.O.Oo++++++++++++++o    X",
"  .   o.O.Oo++++++++++++++o     X",
"  .   oO.Oo++++++++++++++o      X",
"  .   o.Oo++++++++++++++o       X",
"  .   oOo++++++++++++++o        X",
"  .   oo++++++++++++++o         X",
"  .   oooooooooooooooo          X",
"  .                             X",
"  .                             X",
"  .XXXXXXXXXXXXXXXXXXXXXXXXXXXXXX",
"  ooooooooooooooooooooooooooooooo"};
