/* XPM */
static char * payoff_xpm[] = {
"33 30 4 1",
" 	c Black",
".	c Gray100",
"X	c #c0c0c0",
"o	c #808080",
" ............................... ",
" .XXXXXXXXXXXXXXXXXXXXXXXXXXXXXo ",
" .XXXXXXXXXXXXXXXXXXXXXXXXXXXXXo ",
" .XXXXXXXXXXXXXXXXXXXXXXXXXXXXXo ",
" .XXXXXXXXXXXXXXXXXXXXXXXXXXXXXo ",
" .XXXXXXXXXXXXXXXXXXXXXXXXXXXXXo ",
" .XXXXXXXXXXXXXXXXXXXXXXXXXXXXXo ",
" .XXXXXXXXXXXXXXXXXXXXXXXXXXXXXo ",
" .XXXXXXXXXXXXXXXXXXXXXXXXXXXXXo ",
" .XXXXXXXXXXXXXX   XXXXXXXXXXXXo ",
" .XXXXXXXXXXXXXX   XXXXXXXXXXXXo ",
" .XXXXXXXXX             XXXXXXXo ",
" .XXXXXXXX   XXX   XXX   XXXXXXo ",
" .XXXXXXXX   XXX   XXX   XXXXXXo ",
" .XXXXXXXX   XXX   XXX   XXXXXXo ",
" .XXXXXXXX   XXX   XXXXXXXXXXXXo ",
" .XXXXXXXX   XXX   XXXXXXXXXXXXo ",
" .XXXXXXXXX             XXXXXXXo ",
" .XXXXXXXXXXXXXX   XXX   XXXXXXo ",
" .XXXXXXXXXXXXXX   XXX   XXXXXXo ",
" .XXXXXXXX   XXX   XXX   XXXXXXo ",
" .XXXXXXXX   XXX   XXX   XXXXXXo ",
" .XXXXXXXX   XXX   XXX   XXXXXXo ",
" .XXXXXXXXX             XXXXXXXo ",
" .XXXXXXXXXXXXXX   XXXXXXXXXXXXo ",
" .XXXXXXXXXXXXXX   XXXXXXXXXXXXo ",
" .XXXXXXXXXXXXXXXXXXXXXXXXXXXXXo ",
" .XXXXXXXXXXXXXXXXXXXXXXXXXXXXXo ",
" .oooooooooooooooooooooooooooooo ",
"                                 "};
