/* XPM */
static char * print_xpm[] = {
"33 31 5 1",
" 	c #c0c0c0",
".	c Gray100",
"X	c Black",
"o	c #808080",
"O	c Yellow",
"                                 ",
"...............................X.",
".                             oX.",
".                             oX.",
".                             oX.",
".                             oX.",
".                             oX.",
".           XXXXXXXXXXXXXX    oX.",
".          X.............X    oX.",
".          X.XXXXXXXXX..X     oX.",
".         X.............X     oX.",
".         X..XXXXXXXX..X      oX.",
".         X............X      oX.",
".        X..XXXXXXXXX..XXXX   oX.",
".       XX............X   XX  oX.",
".      XX..XXXXXXXXX..X  X X  oX.",
".     X X............X  X XX  oX.",
".    X XXXXXXXXXXXXXX  X X X  oX.",
".   X                 X X  X  oX.",
".   XXXXXXXXXXXXXXXXXXXX   X  oX.",
".   X                 X    X  oX.",
".   X          oooo   X   X   oX.",
".   X          OOOO   X  XX   oX.",
".   X                 X X X   oX.",
".   XXXXXXXXXXXXXXXXXXXX X    oX.",
".    X               X  X     oX.",
".    X               X X      oX.",
".     XXXXXXXXXXXXXXXXX       oX.",
".                             oX.",
".ooooooooooooooooooooooooooooooX.",
"XXXXXXXXXXXXXXXXXXXXXXXXXXXXXXXXX"};
