/* XPM */
static char * solve_xpm[] = {
"32 32 4 1",
" 	c #c0c0c0",
".	c Gray100",
"X	c #808080",
"o	c Black",
"                                ",
" ...............................",
" .                             X",
" .                             X",
" .                             X",
" .                             X",
" .                             X",
" .      ooooooooooooooooooo    X",
" .     o                   o   X",
" .     o                   o   X",
" .     o  ooooooooooooo    o   X",
" .     o  o...........o    o   X",
" .     o  o...........o    o   X",
" .     o  ooooooooooooo    o   X",
" .     o                   o   X",
" .     o                   o   X",
" .     o  ..o ..o ..o ..o  o   X",
" .     o  ..o ..o ..o ..o  o   X",
" .     o  XXo XXo XXo XXo  o   X",
" .     o                   o   X",
" .     o  ..o ..o ..o ..o  o   X",
" .     o  ..o ..o ..o ..o  o   X",
" .     o  XXo XXo XXo XXo  o   X",
" .     o                   o   X",
" .     o                   o   X",
" .     ooooooooooooooooooooo   X",
" .                             X",
" .                             X",
" .                             X",
" .XXXXXXXXXXXXXXXXXXXXXXXXXXXXXX",
" ooooooooooooooooooooooooooooooo",
"                                "};
