/* XPM */
static char * zoomin_xpm[] = {
"32 30 5 1",
" 	c Gray100",
".	c Black",
"X	c #c0c0c0",
"o	c #808080",
"O	c #000080",
"                               .",
" XXXXXXXXXXXXXXXXXXXXXXXXXXXXXo.",
" XXXXXXXXXXXXXXXXXXXXXXXXXXXXXo.",
" XXXXXXXXXXXXXXXXXXXXXXXXXXXXXo.",
" XXXXXXXXXo.....oXXXXXXXXXXXXXo.",
" XXXXXXXo..XXXXX..oXXXXXXXXXXXo.",
" XXXXXXo.XXX  XXXX.oXXXXXXXXXXo.",
" XXXXXo.XX  XXXXXXX.oXXXXXXXXXo.",
" XXXXX.XX XX...XXXXX.XXXXXXXXXo.",
" XXXXo.X XXX...XXXXX.oXXXXXXXXo.",
" XXXX.XX XXX...XXXXXX.XXXXXXXXo.",
" XXXX.X X.........XXX.XXXXXXXXo.",
" XXXX.X X.........XXX.XXXXXXXXo.",
" XXXX.XXX.........XXX.XXXXXXXXo.",
" XXXX.XXXXXX...XXX XX.XXXXXXXXo.",
" XXXXo.XXXXX...XXX X.oXXXXXXXXo.",
" XXXXX.XXXXX...XX XX.XXXXXXXXXo.",
" XXXXXo.XXXXXXX  XX..XXXXXXXXXo.",
" XXXXXXo.XXXXXXXXX.OOOXXXXXXXXo.",
" XXXXXXXo..XXXXX...OOOOXXXXXXXo.",
" XXXXXXXXXo.....oXXOOOOOXXXXXXo.",
" XXXXXXXXXXXXXXXXXXXOOOOOXXXXXo.",
" XXXXXXXXXXXXXXXXXXXXOOOOOXXXXo.",
" XXXXXXXXXXXXXXXXXXXXXOOOOOXXXo.",
" XXXXXXXXXXXXXXXXXXXXXXOOOOOXXo.",
" XXXXXXXXXXXXXXXXXXXXXXXOOOOXXo.",
" XXXXXXXXXXXXXXXXXXXXXXXXOOOXXo.",
" XXXXXXXXXXXXXXXXXXXXXXXXXXXXXo.",
" oooooooooooooooooooooooooooooo.",
"................................"};
