/* XPM */
static char * add_xpm[] = {
"32 30 5 1",
" 	c Gray100",
".	c Black",
"X	c #c0c0c0",
"o	c #808080",
"O	c #800080",
"                               .",
" XXXXXXXXXXXXXXXXXXXXXXXXXXXXXo.",
" XXXXXXXXXXXXXXXXXXXXXXXXXXXXXo.",
" XXXXXXXXXXXXXXXXXXXXXXXXXXXXXo.",
" XXXXXXXXXXXXXXXXXX.........XXo.",
" XXXXXXXXXXXXXXXXXX.       .XXo.",
" XXXXXXXXXXXXXXXXXX.       .XXo.",
" XXXXXXXXXXXXX....X.       .XXo.",
" XXXXXXXXXXXXXX...X.       .XXo.",
" XXXXXXXXXXXXXX...X.       .XXo.",
" XXXXXXXXXXXXX.XX.X.........XXo.",
" XXXXXXXXXXXX.XXXXXXXXXXXXXXXXo.",
" XXX.........XXXXXXXXX..XXXXXXo.",
" XXX.OOOOOOO.XXXXXXXXX..XXXXXXo.",
" XXX.OOOOOOO.XXXXXXX......XXXXo.",
" XXX.OOOOOOO.XXXXXXX......XXXXo.",
" XXX.OOOOOOO.XXXXXXXXX..XXXXXXo.",
" XXX.OOOOOOO.XXXXXXXXX..XXXXXXo.",
" XXX.........XXXXXXXXXXXXXXXXXo.",
" XXXXXXXXXXXX.XXXXXXXXXXXXXXXXo.",
" XXXXXXXXXXXXX.XX.X.........XXo.",
" XXXXXXXXXXXXXX...X.       .XXo.",
" XXXXXXXXXXXXXX...X.       .XXo.",
" XXXXXXXXXXXXX....X.       .XXo.",
" XXXXXXXXXXXXXXXXXX.       .XXo.",
" XXXXXXXXXXXXXXXXXX.       .XXo.",
" XXXXXXXXXXXXXXXXXX.........XXo.",
" XXXXXXXXXXXXXXXXXXXXXXXXXXXXXo.",
" oooooooooooooooooooooooooooooo.",
"................................"};
