/* XPM */
static char * efg_xpm[] = {
"33 30 6 1",
" 	c Gray100",
".	c Black",
"X	c #808080",
"o	c #c0c0c0",
"O	c Yellow",
"+	c Cyan",
" .                              .",
"X. ooooooooooooooooooooooooooooX.",
"X. ooooooooooooooooooooooooooooX.",
"X. oooooooooo.......oooooooooooX.",
"X. oooooooooo.O O O.oooooooooooX.",
"X. oooooooooo. O O .oooooooooooX.",
"X. oooooooooo.O O O.oooooooooooX.",
"X. oooooooooo. O O .oooooooooooX.",
"X. oooooooooo.......oooooooooooX.",
"X. ooooooooooooo.ooooooooooooooX.",
"X. ooooooooooooo.ooooooooooooooX.",
"X. oooooooooooo. .oooooooooooooX.",
"X. ooooooooooo. + .ooooooooooooX.",
"X. oooooooooo. + + .oooooooooooX.",
"X. oooooo.... + + + ....oooooooX.",
"X. oooooo.ooo. + + .ooo.oooooooX.",
"X. oooooo.oooo. + .oooo.oooooooX.",
"X. oooooo.ooooo. .ooooo.oooooooX.",
"X. ooo.......ooo.ooo.......ooooX.",
"X. ooo.O O O.ooooooo.O O O.ooooX.",
"X. ooo. O O .ooooooo. O O .ooooX.",
"X. ooo.O O O.ooooooo.O O O.ooooX.",
"X. ooo. O O .ooooooo. O O .ooooX.",
"X. ooo.O O O.ooooooo.O O O.ooooX.",
"X. ooo.......ooooooo.......ooooX.",
"X. ooooooooooooooooooooooooooooX.",
"X. ooooooooooooooooooooooooooooX.",
"X. ooooooooooooooooooooooooooooX.",
"X. XXXXXXXXXXXXXXXXXXXXXXXXXXXXX.",
"................................."};
