/* XPM */
static char * gambi_xpm[] = {
"32 32 7 1",
" 	c #800000",
".	c Gray100",
"X	c #808080",
"o	c Red",
"O	c Green",
"+	c #c0c0c0",
"@	c #008000",
"     ..   .. ... .    ... .     ",
" XXX X .XX .  .  X XXX .. X.X XX",
" X...X X.. X X . X X.. X. X.. X.",
" X.  .     X X.X X    .X. X.. X.",
" X.. X XXX X X.. X XXX .. X.. X.",
" X.. X X.. X X.. X X.. X. X.. X.",
"     X X.. X X.. X    .X. ooooo.",
".XXXXX.X...X.X...X.XXXX..ooooooX",
"........................ooXXXXXX",
".................OOOO  ooXX.....",
"................OOOOO  ooX......",
"...............OOXXXX  +oo......",
"..............OOXX....++.oooooo.",
".............OOXX....  ...oooooX",
".......ooo@@OOXX.....  +...XXXXX",
"......oooo@@OOX......  +........",
".....ooXXX@@+OO......  +..ooooo.",
"....ooXX..@@+.OO......++.ooooooX",
"...ooXX....++..OO....  .ooXXXXXX",
"..ooXX....@@....OOOOO  ooXX.....",
"oooXX.....@@+....OOOO  ooX......",
"oooX......@@+.....XXXXXXoo......",
"XXoo......@@+............oooooo.",
"...oo......++...OOOOOO....oooooX",
"....oo....@@...OOOOOOOX....XXXXX",
".....oo...@@+.OOXXXXXXX.........",
"......oooo@@OOOXX...............",
".......ooo@@OOOX................",
"........XXXXXXOO................",
"...............OOOOOOO..........",
"................OOOOOOX.........",
".................XXXXXX........."};
