/* XPM */
static char * help_xpm[] = {
"33 30 5 1",
" 	c #c0c0c0",
".	c Gray100",
"X	c Black",
"o	c #808080",
"O	c #000080",
" ...............................X",
" .                             oX",
" .                             oX",
" .                             oX",
" .                  ooooo      oX",
" .   X            oOOOOOOOo    oX",
" .   XX          oOOOo oOOOo   oX",
" .   XXX        oOOOo   oOOOo  oX",
" .   XXXX       OOOo     OOOO  oX",
" .   XXXXX      OOOo     OOOO  oX",
" .   XXXXXX     OOOo     OOOO  oX",
" .   XXXXXXX    oOOO    oOOOO  oX",
" .   XXXXXXXX           OOOOo  oX",
" .   XXXXXXXXX         OOOOo   oX",
" .   XXXXXXXXXX       OOOOo    oX",
" .   XXXXXXXXXXX     OOOOo     oX",
" .   XXXXXXXXXXXX   OOOOo      oX",
" .   XXXXXXXXXXXX   OOOo       oX",
" .   XXXXXXX        oOOo       oX",
" .   XXXXoXXX                  oX",
" .   XXX  XXX                  oX",
" .   XX    XXX      oOOo       oX",
" .         XXX      OOOO       oX",
" .          XXX     oOOo       oX",
" .          XXX                oX",
" .           XXX               oX",
" .           XXX               oX",
" .                             oX",
" .ooooooooooooooooooooooooooooooX",
" XXXXXXXXXXXXXXXXXXXXXXXXXXXXXXXX"};
