/* XPM */
static char * inspect_xpm[] = {
"33 30 4 1",
" 	c Black",
".	c Gray100",
"X	c #c0c0c0",
"o	c #808080",
" ............................... ",
" .XXXXXXXXXXXXXXXXXXXXXXXXXXXXXo ",
" .XXXXXXXXXXXXXXXXXXXXXXXXXXXXXo ",
" .XXXXXXXXXXXXXXXXXXXXXXXXXXXXXo ",
" .XXXXXXXXo     oXXXXXXXXXXXXXXo ",
" .XXXXXXo         oXXXXXXXXXXXXo ",
" .XXXXXo    o..o   oXXXXXXXXXXXo ",
" .XXXXX     ....    XXXXXXXXXXXo ",
" .XXXXo     o..o    oXXXXXXXXXXo ",
" .XXXX               XXXXXXXXXXo ",
" .XXXX     .....     XXXXXXXXXXo ",
" .XXXX      o...     XXXXXXXXXXo ",
" .XXXX      o...     XXXXXXXXXXo ",
" .XXXXo     o...           XXXXo ",
" .XXXXX    ......   X..... XXXXo ",
" .XXXXXo           ...X X. XXXXo ",
" .XXXXXXo         o..X   X XXXXo ",
" .XXXXXXXXo     o....      XXXXo ",
" .XXXXXXXXXXXX X....... .. XXXXo ",
" .XXXXXXXXXXXX ........ .. XXXXo ",
" .XXXXXXXXXXXX ..X ... ... XXXXo ",
" .XXXXXXXXXXXX .X  .. .... XXXXo ",
" .XXXXXXXXXXXX .     ..... XXXXo ",
" .XXXXXXXXXXXX .X  ....... XXXXo ",
" .XXXXXXXXXXXX ..X ....... XXXXo ",
" .XXXXXXXXXXXX             XXXXo ",
" .XXXXXXXXXXXXXXXXXXXXXXXXXXXXXo ",
" .XXXXXXXXXXXXXXXXXXXXXXXXXXXXXo ",
" .oooooooooooooooooooooooooooooo ",
"                                 "};
