/* XPM */
static char * makenf_xpm[] = {
"33 30 5 1",
" 	c Black",
".	c Gray100",
"X	c #c0c0c0",
"o	c #808080",
"O	c Blue",
" ............................... ",
" .XXXXXXXXXXXXXXXXXXXXXXXXXXXXXo ",
" .XXXXXXXXXXXXXXXXXXXXXXXXXXXXXo ",
" .XXXXXXXXXXXXXXXXXXXXXXXXXXXXXo ",
" .XXXXXXXXXXXXXXXXXXXXXXXXXXXXXo ",
" .XXXX                      XXXo ",
" .XXX ...................... XXo ",
" .XXX ...................... XXo ",
" .XXX ..                  .. XXo ",
" .XXX .. OOOOOOOOOOOOOOOO .. XXo ",
" .XXX ..                  .. XXo ",
" .XXX .. o oo oo oo oo oo .. XXo ",
" .XXX ..                  .. XXo ",
" .XXX .. o .. .. .. .. .. .. XXo ",
" .XXX ..                  .. XXo ",
" .XXX .. o .. .. .. .. .. .. XXo ",
" .XXX ..                  .. XXo ",
" .XXX .. o .. .. .. .. .. .. XXo ",
" .XXX ..                  .. XXo ",
" .XXX .. o .. .. .. .. .. .. XXo ",
" .XXX ..                  .. XXo ",
" .XXX .. o .. .. .. .. .. .. XXo ",
" .XXX ..                  .. XXo ",
" .XXX ...................... XXo ",
" .XXX ...................... XXo ",
" .XXXX                      XXXo ",
" .XXXXXXXXXXXXXXXXXXXXXXXXXXXXXo ",
" .XXXXXXXXXXXXXXXXXXXXXXXXXXXXXo ",
" .oooooooooooooooooooooooooooooo ",
"                                 "};
