/* XPM */
static char * move_xpm[] = {
"32 32 8 1",
" 	c Black",
".	c Gray100",
"X	c Cyan",
"o	c #808080",
"O	c Magenta",
"+	c #bf0000",
"@	c #9b6818",
"#	c #00bf00",
"                                ",
" ..   ..  ...   .    . ....     ",
" ..   .. .   .  .    . .        ",
" . . . . .   .  .    . .        ",
" .  .  . .   .  .    . ....     ",
" .     . .   .   .  .  .        ",
" .     . .   .    ..   ....XXXX ",
" .     .  ...     ..     XXXXXXo",
"                        XXoooooo",
"                 OOOO++XXoo     ",
"                OOOOO++XXo      ",
"               OOoooo++@XX      ",
"              OOoo    @@ XXXXXX ",
"             OOoo    ++   XXXXXo",
"       XXX##OOoo     ++@   ooooo",
"      XXXX##OOo      ++@        ",
"     XXooo##@OO      ++@  XXXXX ",
"    XXoo  ##@ OO      @@ XXXXXXo",
"   XXoo    @@  OO    ++ XXoooooo",
"  XXoo    ##    OOOOO++XXoo     ",
"XXXoo     ##@    OOOO++XXo      ",
"XXXo      ##@     ooooooXX      ",
"ooXX      ##@            XXXXXX ",
"   XX      @@   OOOOOO    XXXXXo",
"    XX    ##   OOOOOOOo    ooooo",
"     XX   ##@ OOooooooo         ",
"      XXXX##OOOoo               ",
"       XXX##OOOo                ",
"        ooooooOO                ",
"               OOOOOOO          ",
"                OOOOOOo         ",
"                 oooooo         "};
