#define outcome_width 34
#define outcome_height 34
static char outcome_bits[] = {
 0x00,0x00,0x00,0x00,0x00,0x00,0x00,0x00,0x00,0x00,0x00,0x00,0x00,0x00,0x00,
 0x00,0x00,0x00,0x00,0x00,0x00,0x00,0x00,0x00,0x00,0x00,0x00,0x00,0x00,0x00,
 0x00,0x00,0x00,0x00,0x00,0x00,0x00,0x00,0x00,0x00,0x00,0x00,0x00,0x00,0x00,
 0x00,0x00,0x00,0x00,0x00,0x00,0x00,0x00,0x00,0x00,0x00,0x00,0x1c,0x00,0x00,
 0x00,0x00,0x1c,0x00,0x00,0x00,0xe0,0xff,0x03,0x00,0x00,0x70,0x1c,0x07,0x00,
 0x00,0x70,0x1c,0x07,0x00,0x00,0x70,0x1c,0x07,0x00,0x00,0x70,0x1c,0x00,0x00,
 0x00,0x70,0x1c,0x00,0x00,0x00,0xe0,0xff,0x03,0x00,0x00,0x00,0x1c,0x07,0x00,
 0x00,0x00,0x1c,0x07,0x00,0x00,0x70,0x1c,0x07,0x00,0x00,0x70,0x1c,0x07,0x00,
 0x00,0x70,0x1c,0x07,0x00,0x00,0xe0,0xff,0x03,0x00,0x00,0x00,0x1c,0x00,0x00,
 0x00,0x00,0x1c,0x00,0x00,0x00,0x00,0x00,0x00,0x00,0x00,0x00,0x00,0x00,0x00,
 0x00,0x00,0x00,0x00,0x00,0x00,0x00,0x00,0x00,0x00,0x00,0x00,0x00,0x00,0x00,
 0x00,0x00,0x00,0x00,0x00};
