/* XPM */
static char * params_xpm[] = {
"33 31 7 1",
" 	c #c0c0c0",
".	c Gray100",
"X	c #808080",
"o	c #0000bf",
"O	c #00bf00",
"+	c #bf0000",
"@	c Black",
"                                 ",
"  ...............................",
"  .                             X",
"  .    o     o                  X",
"  .  oooo    ooo                X",
"  .   oooo  ooo                 X",
"  .   oooo ooo                  X",
"  .    oooooo                   X",
"  .     ooooo         OOOOOOO   X",
"  .      oooo        OOOOOOOO   X",
"  .     oooooo           OOO    X",
"  .    ooooooo          OOO     X",
"  .   ooo  oooo         OOO     X",
"  .  ooo    oooo       OOO      X",
"  .  ooo +++ ooo +++   OOO      X",
"  .   o  +++ o  +++   OOO       X",
"  .       +++   +++  OOOO  OO   X",
"  .       +++   ++   OOOOOOOO   X",
"  .        +++ +++   OO   OO    X",
"  .        +++ +++              X",
"  .         +++++               X",
"  .         +++++               X",
"  .          +++                X",
"  .          +++                X",
"  .         +++                 X",
"  .         +++                 X",
"  .      + +++                  X",
"  .      +++++                  X",
"  .                             X",
"  .XXXXXXXXXXXXXXXXXXXXXXXXXXXXXX",
"  @@@@@@@@@@@@@@@@@@@@@@@@@@@@@@@"};
