/* XPM */
static char * save_xpm[] = {
"33 31 5 1",
" 	c Black",
".	c Gray100",
"X	c #c0c0c0",
"o	c #808080",
"O	c #808000",
" ............................... ",
" .XXXXXXXXXXXXXXXXXXXXXXXXXXXXXo ",
" .XXXXXXXXXXXXXXXXXXXXXXXXXXXXXo ",
" .XXXXXXXXXXXXXXXXXXXXXXXXXXXXXo ",
" .XXXXXXXXXXXXXXXXXXXXXXXXXXXXXo ",
" .XXXXXXXXXXXXXXXXXXXXXXXXXXXXXo ",
" .XXXXX                     XXXo ",
" .XXXXX OO XXXXXXXXXXXXX XX XXXo ",
" .XXXXX OO XXXXXXXXXXXXX XX XXXo ",
" .XXXXX OO XXXXXXXXXXXXX    XXXo ",
" .XXXXX OO XXXXXXXXXXXXX OO XXXo ",
" .XXXXX OO XXXXXXXXXXXXX OO XXXo ",
" .XXXXX OO XXXXXXXXXXXXX OO XXXo ",
" .XXXXX OO XXXXXXXXXXXXX OO XXXo ",
" .XXXXX OO XXXXXXXXXXXXX OO XXXo ",
" .XXXXX OO XXXXXXXXXXXXX OO XXXo ",
" .XXXXX OO XXXXXXXXXXXXX OO XXXo ",
" .XXXXX OOO             OOO XXXo ",
" .XXXXX OOOOOOOOOOOOOOOOOOO XXXo ",
" .XXXXX OOOOOOOOOOOOOOOOOOO XXXo ",
" .XXXXX OOO              OO XXXo ",
" .XXXXX OOO          XXX OO XXXo ",
" .XXXXX OOO          XXX OO XXXo ",
" .XXXXX OOO          XXX OO XXXo ",
" .XXXXX OOO          XXX OO XXXo ",
" .XXXXXX OO          XXX OO XXXo ",
" .XXXXXXX                   XXXo ",
" .XXXXXXXXXXXXXXXXXXXXXXXXXXXXXo ",
" .oooooooooooooooooooooooooooooo ",
"                                 ",
"XXXXXXXXXXXXXXXXXXXXXXXXXXXXXXXXX"};
