#define scissor_width 31
#define scissor_height 31
static char scissor_bits[] = {
 0x00,0x00,0x00,0x80,0x00,0x00,0x00,0x80,0x00,0x00,0x00,0x80,0x00,0x00,0x00,
 0x80,0x00,0x00,0x00,0x80,0x00,0x10,0x04,0x80,0x00,0x10,0x04,0x80,0x00,0x10,
 0x04,0x80,0x00,0x10,0x04,0x80,0x00,0x10,0x04,0x80,0x00,0x20,0x02,0x80,0x00,
 0x20,0x02,0x80,0x00,0x20,0x02,0x80,0x00,0x40,0x01,0x80,0x00,0xc0,0x01,0x80,
 0x00,0x80,0x00,0x80,0x00,0xc0,0x01,0x80,0x00,0x40,0x01,0x80,0x00,0x20,0x02,
 0x80,0x00,0x20,0x1e,0x80,0x00,0x3c,0x22,0x80,0x00,0x22,0x22,0x80,0x00,0x22,
 0x22,0x80,0x00,0x22,0x22,0x80,0x00,0x22,0x1c,0x80,0x00,0x22,0x00,0x80,0x00,
 0x1c,0x00,0x80,0x00,0x00,0x00,0x80,0x00,0x00,0x00,0x80,0x00,0x00,0x00,0x80,
 0x00,0x00,0x00,0x80};
