/* XPM */
static char * scissor_xpm[] = {
"31 31 2 1",
" 	c Gray100",
".	c Black",
"                               ",
"                               ",
"                               ",
"                               ",
"                               ",
"            .     .            ",
"            .     .            ",
"            .     .            ",
"            .     .            ",
"            .     .            ",
"             .   .             ",
"             .   .             ",
"             .   .             ",
"              . .              ",
"              ...              ",
"               .               ",
"              ...              ",
"              . .              ",
"             .   .             ",
"             .   ....          ",
"          ....   .   .         ",
"         .   .   .   .         ",
"         .   .   .   .         ",
"         .   .   .   .         ",
"         .   .    ...          ",
"         .   .                 ",
"          ...                  ",
"                               ",
"                               ",
"                               ",
"                               "};
