/* XPM */
static char * table_xpm[] = {
"16 15 20 1",
" 	c None",
".	c #6699CC",
"+	c #333333",
"@	c #222222",
"#	c #9999CC",
"$	c #333300",
"%	c #440000",
"&	c #330033",
"*	c #663300",
"=	c #666633",
"-	c #999933",
";	c #660033",
">	c #770000",
",	c #993300",
"'	c #663333",
")	c #669933",
"!	c #660000",
"~	c #550000",
"{	c #330000",
"]	c #993333",
"          ..+   ",
"          @#@   ",
" $%$%&*&$$=-+@$ ",
"$;>,'>,'>,))@!$$",
"~{]>*,;*,;+@+$~~",
"&$>*,>',;*,>*~@&",
" $$~$~$%%$~{*&$ ",
"      {@$       ",
"       $        ",
"       &        ",
"       $        ",
"       %        ",
"       $        ",
"      {@$       ",
"  {@{{@{@${@{   "};
