/* XPM */
static char * zoomin_xpm[] = {
"17 15 14 1",
" 	c None",
".	c #000000",
"+	c #474747",
"@	c #707070",
"#	c #949494",
"$	c #9D9DB4",
"%	c #000080",
"&	c #0C0C84",
"*	c #9A9AB3",
"=	c #7171A6",
"-	c #090983",
";	c #9797B2",
">	c #7777A8",
",	c #8686AD",
"                 ",
"    ......       ",
"   .      .      ",
"  .   ++   .     ",
" .    ++   @.    ",
" .  ##++##  .    ",
" . #......# .    ",
" .  ##++##  .    ",
" .    ++    .    ",
"  .   ++   .$    ",
"   .    @ .%&*   ",
"    ...... =%-;  ",
"            >%&; ",
"             ,&& ",
"                 "};
