/* XPM */
static char * zoom_xpm[] = {
"32 30 5 1",
" 	c Gray100",
".	c Black",
"X	c #c0c0c0",
"o	c #808080",
"O	c Cyan",
"                               .",
" XXXXXXXXXXXXXXXXXXXXXXXXXXXXXo.",
" XXXXXXXXXXXXXXXXXXXXXXXXXXXXXo.",
" XXXXXXXXXXXXXXXXXXXXXXXXXXXXXo.",
" XXX..............XXXXXXXXXXXXo.",
" XXX.            ..XXXXXXXXXXXo.",
" XXX.            . .XXXXXXXXXXo.",
" XXX.            .  .XXXXXXXXXo.",
" XXX.            .....XXXXXXXXo.",
" XXX.                .XXXXXXXXo.",
" XXX.                .XXXXXXXXo.",
" XXX.           .... .XXXXXXXXo.",
" XXX.         ..oXXo..XXXXXXXXo.",
" XXX.        .oXO OXXo.XXXXXXXo.",
" XXX.        .XO XXXXo.XXXXXXXo.",
" XXX.       .oO XXXXXoo.XXXXXXo.",
" XXX.       .X XXXXXXoX.XXXXXXo.",
" XXX.       .XOXXXXXXoX.XXXXXXo.",
" XXX.       .oXXXXXXOoo.XXXXXXo.",
" XXX.        .XXXXXO o.XXXXXXXo.",
" XXX.        .oXXXXXXo.XXXXXXXo.",
" XXX.         ..oXXo...oXXXXXXo.",
" XXX.           .... .o..XXXXXo.",
" XXX.                .X...XXXXo.",
" XXX.                .XX...XXXo.",
" XXX.                .XXX...XXo.",
" XXX..................XXXX..XXo.",
" XXXXXXXXXXXXXXXXXXXXXXXXXXXXXo.",
" oooooooooooooooooooooooooooooo.",
"................................"};
