/* XPM */
static const char *ledgrey_xpm[]={
"15 15 75 2",
"Qt c None",
".# c #000000",
".x c #151515",
".a c #161616",
"#a c #171717",
"#f c #191919",
"#i c #1e1e1e",
".G c #202020",
".q c #2b2b2b",
".H c #2c2c2c",
".h c #2d2d2d",
".8 c #2e2e2e",
"#d c #2f2f2f",
"#e c #323232",
".b c #343434",
".S c #363636",
".0 c #373737",
".g c #383838",
".p c #3a3a3a",
".f c #3b3b3b",
".R c #3c3c3c",
"#h c #3d3d3d",
".y c #404040",
"#b c #424242",
".c c #444444",
".i c #464646",
".Z c #474747",
".e c #484848",
".1 c #494949",
".d c #4a4a4a",
"#g c #4b4b4b",
".z c #4e4e4e",
".j c #4f4f4f",
".o c #505050",
".I c #515151",
".9 c #525252",
".w c #535353",
".k c #545454",
".Q c #555555",
".n c #565656",
".l c #575757",
".J c #595959",
".m c #5a5a5a",
"#c c #5b5b5b",
".7 c #5c5c5c",
".A c #5d5d5d",
".v c #5e5e5e",
".T c #5f5f5f",
".r c #606060",
".K c #616161",
"## c #626262",
".6 c #636363",
".2 c #646464",
".s c #676767",
".F c #686868",
".B c #696969",
".Y c #6a6a6a",
".U c #6b6b6b",
".t c #6d6d6d",
".P c #6e6e6e",
".L c #6f6f6f",
".3 c #727272",
".4 c #747474",
".u c #757575",
".5 c #767676",
".E c #7e7e7e",
".V c #7f7f7f",
"#. c #808080",
".C c #818181",
".M c #919191",
".X c #959595",
".D c #a1a1a1",
".O c #a4a4a4",
".W c #a8a8a8",
".N c #ffffff",
"QtQtQtQtQt.#.#.#.#.#QtQtQtQtQt",
"QtQtQt.#.a.b.c.d.e.f.g.#QtQtQt",
"QtQt.#.h.i.j.k.l.m.n.o.p.#QtQt",
"QtQt.q.i.o.l.r.s.t.u.v.w.fQtQt",
"Qt.x.y.z.n.A.B.C.D.E.F.m.j.GQt",
"Qt.H.i.I.J.K.L.M.N.O.P.v.Q.RQt",
"Qt.S.e.k.m.T.U.V.W.X.Y.A.n.ZQt",
"Qt.0.1.w.m.v.2.3.4.5.6.7.Q.ZQt",
"Qt.8.i.9.J.A#..r##.r.A.m.w.RQt",
"Qt#a#b.z.n.m.A.v.v.A#c.l.z.GQt",
"QtQt#d.Z.o.n.J.m.m.J.n.o.pQtQt",
"QtQt.##e.e.j.w.Q.Q.9.z.p.#QtQt",
"QtQtQt.##f.g.i#g.e#h#i.#QtQtQt",
"QtQtQtQtQt.#.#.#.#.#QtQtQtQtQt",
"QtQtQtQtQtQtQtQtQtQtQtQtQtQtQt"};
